<?xml version="1.0" encoding="UTF-8" standalone="yes"?>
<!DOCTYPE svg PUBLIC "-//W3C//DTD SVG 1.0//EN" "http://www.w3.org/TR/2001/REC-SVG-20010904/DTD/svg10.dtd">
<svg height="400" width="624" xmlns="http://www.w3.org/2000/svg" xmlns:svg="http://www.w3.org/2000/svg" xmlns:xlink="http://www.w3.org/1999/xlink">
	<line stroke="black" stroke-width="2" x1="65.5" x2="205.5" y1="310" y2="310" />
	<line stroke="black" stroke-width="1" x1="65.5" x2="65.5" y1="310" y2="305" />
	<line stroke="black" stroke-width="1" x1="205.5" x2="205.5" y1="310" y2="305" />
	<text font-family="Arial" font-size="10" text-anchor="middle" x="65.5" y="325">0</text>
	<text font-family="Arial" font-size="10" text-anchor="middle" x="205.5" y="325">0.002</text>
	<text font-family="Arial" font-size="15" text-anchor="middle" x="135.5" y="340">Means in groups</text>
	<rect fill="sandybrown" height="10" stroke="black" width="28" x="7" y="70" />
	<text font-family="Arial" font-size="10" text-anchor="start" x="40" y="80">Day.1</text>
	<rect fill="cornflowerblue" height="10" stroke="black" width="28" x="90" y="70" />
	<text font-family="Arial" font-size="10" text-anchor="start" x="123" y="80">Day.29</text>
	<line stroke="black" stroke-width="2" x1="265.5" x2="515.5" y1="310" y2="310" />
	<line stroke="black" stroke-width="1" x1="265.5" x2="265.5" y1="310" y2="305" />
	<text font-family="Arial" font-size="10" text-anchor="end" x="265.5" y="325">-0.0005</text>
	<line stroke="black" stroke-width="1" x1="348.833333333333" x2="348.833333333333" y1="310" y2="305" />
	<text font-family="Arial" font-size="10" text-anchor="end" x="348.833333333333" y="325">0</text>
	<line stroke="black" stroke-width="1" x1="432.166666666667" x2="432.166666666667" y1="310" y2="305" />
	<text font-family="Arial" font-size="10" text-anchor="end" x="432.166666666667" y="325">0.0005</text>
	<line stroke="black" stroke-width="1" x1="515.5" x2="515.5" y1="310" y2="305" />
	<text font-family="Arial" font-size="10" text-anchor="end" x="515.5" y="325">0.001</text>
	<line stroke="black" stroke-dasharray="3 2" stroke-width="1" x1="348.833333333333" x2="348.833333333333" y1="300" y2="100" />
	<text font-family="Arial" font-size="15" text-anchor="middle" x="390.5" y="340">Difference between groups</text>
	<text font-family="Arial" font-size="10" text-anchor="middle" x="390.5" y="80">95% confidence intervals</text>
	<text font-family="Arial" font-size="10" text-anchor="end" x="60.5" y="130">COG2199</text>
	<text font-family="Arial" font-size="10" text-anchor="start" x="520.5" y="130">0.044</text>
	<rect fill-opacity="0.1" height="50" width="140" x="65.5" y="100" />
	<rect fill-opacity="0.1" height="50" width="250" x="265.5" y="100" />
	<text font-family="Arial" font-size="10" text-anchor="end" x="60.5" y="180">COG1940</text>
	<text font-family="Arial" font-size="10" text-anchor="start" x="520.5" y="180">0.028</text>
	<text font-family="Arial" font-size="10" text-anchor="end" x="60.5" y="230">COG0628</text>
	<text font-family="Arial" font-size="10" text-anchor="start" x="520.5" y="230">0.010</text>
	<rect fill-opacity="0.1" height="50" width="140" x="65.5" y="200" />
	<rect fill-opacity="0.1" height="50" width="250" x="265.5" y="200" />
	<text font-family="Arial" font-size="10" text-anchor="end" x="60.5" y="280">COG1253</text>
	<text font-family="Arial" font-size="10" text-anchor="start" x="520.5" y="280">0.036</text>
	<rect fill="sandybrown" height="20" stroke="black" stroke-width="1" width="116.939082094939" x="65.5" y="105" />
	<rect fill="cornflowerblue" height="20" stroke="black" width="95.3073967640116" x="65.5" y="125" />
	<rect fill="sandybrown" height="20" stroke="black" stroke-width="1" width="90.7210939345389" x="65.5" y="155" />
	<rect fill="cornflowerblue" height="20" stroke="black" width="107.509497551696" x="65.5" y="175" />
	<rect fill="sandybrown" height="20" stroke="black" stroke-width="1" width="92.3190443610204" x="65.5" y="205" />
	<rect fill="cornflowerblue" height="20" stroke="black" width="95.9886646188022" x="65.5" y="225" />
	<rect fill="sandybrown" height="20" stroke="black" stroke-width="1" width="75.8569801019233" x="65.5" y="255" />
	<rect fill="cornflowerblue" height="20" stroke="black" width="80.4504272538421" x="65.5" y="275" />
	<line stroke="black" stroke-width="1" x1="352.050413301438" x2="392.004012692685" y1="125" y2="125" />
	<circle cx="400.337346026018" cy="125" fill="sandybrown" r="8.33333333333333" stroke="black" />
	<line stroke="black" stroke-width="1" x1="408.670679359352" x2="448.624278750597" y1="125" y2="125" />
	<line stroke="black" stroke-width="1" x1="352.050413301438" x2="352.050413301438" y1="120.833333333333" y2="129.166666666667" />
	<line stroke="black" stroke-width="1" x1="448.624278750597" x2="448.624278750597" y1="120.833333333333" y2="129.166666666667" />
	<line stroke="black" stroke-width="1" x1="276.799521989137" x2="300.52761043534" y1="175" y2="175" />
	<circle cx="308.860943768673" cy="175" fill="cornflowerblue" r="8.33333333333333" stroke="black" />
	<line stroke="black" stroke-width="1" x1="317.194277102007" x2="340.922365548211" y1="175" y2="175" />
	<line stroke="black" stroke-width="1" x1="276.799521989137" x2="276.799521989137" y1="170.833333333333" y2="179.166666666667" />
	<line stroke="black" stroke-width="1" x1="340.922365548211" x2="340.922365548211" y1="170.833333333333" y2="179.166666666667" />
	<line stroke="black" stroke-width="1" x1="335.60977381434" x2="331.762808910043" y1="225" y2="225" />
	<circle cx="340.096142243377" cy="225" fill="cornflowerblue" r="8.33333333333333" stroke="black" />
	<line stroke="black" stroke-width="1" x1="348.42947557671" x2="344.582510672413" y1="225" y2="225" />
	<line stroke="black" stroke-width="1" x1="335.60977381434" x2="335.60977381434" y1="220.833333333333" y2="229.166666666667" />
	<line stroke="black" stroke-width="1" x1="344.582510672413" x2="344.582510672413" y1="220.833333333333" y2="229.166666666667" />
	<line stroke="black" stroke-width="1" x1="328.298435855891" x2="329.56322106686" y1="275" y2="275" />
	<circle cx="337.896554400193" cy="275" fill="cornflowerblue" r="8.33333333333333" stroke="black" />
	<line stroke="black" stroke-width="1" x1="346.229887733527" x2="347.494672944493" y1="275" y2="275" />
	<line stroke="black" stroke-width="1" x1="328.298435855891" x2="328.298435855891" y1="270.833333333333" y2="279.166666666667" />
	<line stroke="black" stroke-width="1" x1="347.494672944493" x2="347.494672944493" y1="270.833333333333" y2="279.166666666667" />
	<g transform="rotate(90,563,200)">
		<text font-family="Arial" font-size="10" text-anchor="middle" x="563" y="200">p_value</text>
	</g>
	<!-- 
	Generated using the Perl SVG Module V2.59
	by Ronan Oger
	Info: http://www.roitsystems.com/
 -->
</svg>