<?xml version="1.0" encoding="UTF-8" standalone="yes"?>
<!DOCTYPE svg PUBLIC "-//W3C//DTD SVG 1.0//EN" "http://www.w3.org/TR/2001/REC-SVG-20010904/DTD/svg10.dtd">
<svg height="377" style="background-color: #ffffff;" width="861" xmlns="http://www.w3.org/2000/svg" xmlns:svg="http://www.w3.org/2000/svg" xmlns:xlink="http://www.w3.org/1999/xlink">
	<path d="M 40 145 L 40 82.5 A 12.5 12.5 0 0 1 52.5,70 L 240 70" style="fill: none; stroke: black; stroke-width: 1.5" />
	<text fill="black" font-family="Arial" font-size="15" stroke="none" text-anchor="start" x="247.5" y="75">Top</text>
	<path d="M 40 145 L 40 218.28 A 1.72 1.72 0 0 0 41.72,220 L 50.29 220" style="fill: none; stroke: black; stroke-width: 1.5" />
	<path d="M 50.29 220 L 50.29 178.33 A 8.33 8.33 0 0 1 58.62,170 L 240 170" style="fill: none; stroke: black; stroke-width: 1.5" />
	<text fill="black" font-family="Arial" font-size="15" stroke="none" text-anchor="start" x="247.5" y="175">Bottom</text>
	<path d="M 50.29 220 L 50.29 261.67 A 8.33 8.33 0 0 0 58.62,270 L 240 270" style="fill: none; stroke: black; stroke-width: 1.5" />
	<text fill="black" font-family="Arial" font-size="15" stroke="none" text-anchor="start" x="247.5" y="275">Middle</text>
	<text fill="black" font-family="Arial" font-size="11.1111111111111" stroke="none" text-anchor="start" x="40" y="340">Unweighted Unifrac Distance</text>
	<line stroke="black" stroke-width="1.5" x1="40" x2="240" y1="355" y2="355" />
	<line stroke="black" stroke-width="1.5" x1="40" x2="40" y1="355" y2="347.5" />
	<text fill="black" font-family="Arial" font-size="15" stroke="none" text-anchor="middle" x="40" y="370">0</text>
	<line stroke="black" stroke-width="1.5" x1="44.8815581621505" x2="44.8815581621505" y1="355" y2="351.25" />
	<line stroke="black" stroke-width="1.5" x1="49.763116324301" x2="49.763116324301" y1="355" y2="351.25" />
	<line stroke="black" stroke-width="1.5" x1="54.6446744864514" x2="54.6446744864514" y1="355" y2="351.25" />
	<line stroke="black" stroke-width="1.5" x1="59.5262326486019" x2="59.5262326486019" y1="355" y2="351.25" />
	<line stroke="black" stroke-width="1.5" x1="64.4077908107524" x2="64.4077908107524" y1="355" y2="347.5" />
	<line stroke="black" stroke-width="1.5" x1="69.2893489729029" x2="69.2893489729029" y1="355" y2="351.25" />
	<line stroke="black" stroke-width="1.5" x1="74.1709071350534" x2="74.1709071350534" y1="355" y2="351.25" />
	<line stroke="black" stroke-width="1.5" x1="79.0524652972039" x2="79.0524652972039" y1="355" y2="351.25" />
	<line stroke="black" stroke-width="1.5" x1="83.9340234593543" x2="83.9340234593543" y1="355" y2="351.25" />
	<line stroke="black" stroke-width="1.5" x1="88.8155816215048" x2="88.8155816215048" y1="355" y2="347.5" />
	<text fill="black" font-family="Arial" font-size="15" stroke="none" text-anchor="middle" x="88.8155816215048" y="370">0.05</text>
	<line stroke="black" stroke-width="1.5" x1="93.6971397836553" x2="93.6971397836553" y1="355" y2="351.25" />
	<line stroke="black" stroke-width="1.5" x1="98.5786979458058" x2="98.5786979458058" y1="355" y2="351.25" />
	<line stroke="black" stroke-width="1.5" x1="103.460256107956" x2="103.460256107956" y1="355" y2="351.25" />
	<line stroke="black" stroke-width="1.5" x1="108.341814270107" x2="108.341814270107" y1="355" y2="351.25" />
	<line stroke="black" stroke-width="1.5" x1="113.223372432257" x2="113.223372432257" y1="355" y2="347.5" />
	<line stroke="black" stroke-width="1.5" x1="118.104930594408" x2="118.104930594408" y1="355" y2="351.25" />
	<line stroke="black" stroke-width="1.5" x1="122.986488756558" x2="122.986488756558" y1="355" y2="351.25" />
	<line stroke="black" stroke-width="1.5" x1="127.868046918709" x2="127.868046918709" y1="355" y2="351.25" />
	<line stroke="black" stroke-width="1.5" x1="132.749605080859" x2="132.749605080859" y1="355" y2="351.25" />
	<line stroke="black" stroke-width="1.5" x1="137.63116324301" x2="137.63116324301" y1="355" y2="347.5" />
	<text fill="black" font-family="Arial" font-size="15" stroke="none" text-anchor="middle" x="137.63116324301" y="370">0.1</text>
	<line stroke="black" stroke-width="1.5" x1="142.51272140516" x2="142.51272140516" y1="355" y2="351.25" />
	<line stroke="black" stroke-width="1.5" x1="147.394279567311" x2="147.394279567311" y1="355" y2="351.25" />
	<line stroke="black" stroke-width="1.5" x1="152.275837729461" x2="152.275837729461" y1="355" y2="351.25" />
	<line stroke="black" stroke-width="1.5" x1="157.157395891612" x2="157.157395891612" y1="355" y2="351.25" />
	<line stroke="black" stroke-width="1.5" x1="162.038954053762" x2="162.038954053762" y1="355" y2="347.5" />
	<line stroke="black" stroke-width="1.5" x1="166.920512215913" x2="166.920512215913" y1="355" y2="351.25" />
	<line stroke="black" stroke-width="1.5" x1="171.802070378063" x2="171.802070378063" y1="355" y2="351.25" />
	<line stroke="black" stroke-width="1.5" x1="176.683628540214" x2="176.683628540214" y1="355" y2="351.25" />
	<line stroke="black" stroke-width="1.5" x1="181.565186702364" x2="181.565186702364" y1="355" y2="351.25" />
	<line stroke="black" stroke-width="1.5" x1="186.446744864515" x2="186.446744864515" y1="355" y2="347.5" />
	<text fill="black" font-family="Arial" font-size="15" stroke="none" text-anchor="middle" x="186.446744864515" y="370">0.15</text>
	<line stroke="black" stroke-width="1.5" x1="191.328303026665" x2="191.328303026665" y1="355" y2="351.25" />
	<line stroke="black" stroke-width="1.5" x1="196.209861188816" x2="196.209861188816" y1="355" y2="351.25" />
	<line stroke="black" stroke-width="1.5" x1="201.091419350966" x2="201.091419350966" y1="355" y2="351.25" />
	<line stroke="black" stroke-width="1.5" x1="205.972977513117" x2="205.972977513117" y1="355" y2="351.25" />
	<line stroke="black" stroke-width="1.5" x1="210.854535675267" x2="210.854535675267" y1="355" y2="347.5" />
	<line stroke="black" stroke-width="1.5" x1="215.736093837418" x2="215.736093837418" y1="355" y2="351.25" />
	<line stroke="black" stroke-width="1.5" x1="220.617651999568" x2="220.617651999568" y1="355" y2="351.25" />
	<line stroke="black" stroke-width="1.5" x1="225.499210161719" x2="225.499210161719" y1="355" y2="351.25" />
	<line stroke="black" stroke-width="1.5" x1="230.380768323869" x2="230.380768323869" y1="355" y2="351.25" />
	<line stroke="black" stroke-width="1.5" x1="235.26232648602" x2="235.26232648602" y1="355" y2="347.5" />
	<text fill="black" font-family="Arial" font-size="15" stroke="none" text-anchor="middle" x="235.26232648602" y="370">0.2</text>
	<rect fill="crimson" height="80" stroke="black" width="117.18" x="321" y="30" />
	<rect fill="blue" height="80" stroke="black" width="83.65" x="438.18" y="30" />
	<rect fill="lightseagreen" height="80" stroke="black" width="80.71" x="521.83" y="30" />
	<rect fill="orange" height="80" stroke="black" width="23.25" x="602.54" y="30" />
	<rect fill="mediumpurple" height="80" stroke="black" width="38.38" x="625.79" y="30" />
	<rect fill="palegreen" height="80" stroke="black" width="11.42" x="664.17" y="30" />
	<rect fill="lightcoral" height="80" stroke="black" width="5.55" x="675.59" y="30" />
	<rect fill="dodgerblue" height="80" stroke="black" width="4.99" x="681.14" y="30" />
	<rect fill="lawngreen" height="80" stroke="black" width="6.14" x="686.13" y="30" />
	<rect fill="olive" height="80" stroke="black" width="3.81" x="692.27" y="30" />
	<rect fill="yellow" height="80" stroke="black" width="24.93" x="696.08" y="30" />
	<rect fill="crimson" height="80" stroke="black" width="102.19" x="321" y="130" />
	<line stroke="black" stroke-width="1" x1="438.18" x2="423.19" y1="110" y2="130" />
	<rect fill="blue" height="80" stroke="black" width="87.18" x="423.19" y="130" />
	<line stroke="black" stroke-width="1" x1="521.83" x2="510.37" y1="110" y2="130" />
	<rect fill="lightseagreen" height="80" stroke="black" width="70.23" x="510.37" y="130" />
	<line stroke="black" stroke-width="1" x1="602.54" x2="580.6" y1="110" y2="130" />
	<rect fill="orange" height="80" stroke="black" width="37.96" x="580.6" y="130" />
	<line stroke="black" stroke-width="1" x1="625.79" x2="618.56" y1="110" y2="130" />
	<rect fill="mediumpurple" height="80" stroke="black" width="29.25" x="618.56" y="130" />
	<line stroke="black" stroke-width="1" x1="664.17" x2="647.81" y1="110" y2="130" />
	<rect fill="palegreen" height="80" stroke="black" width="14.9" x="647.81" y="130" />
	<line stroke="black" stroke-width="1" x1="675.59" x2="662.71" y1="110" y2="130" />
	<rect fill="lightcoral" height="80" stroke="black" width="8.59" x="662.71" y="130" />
	<line stroke="black" stroke-width="1" x1="681.14" x2="671.3" y1="110" y2="130" />
	<rect fill="dodgerblue" height="80" stroke="black" width="6.04" x="671.3" y="130" />
	<line stroke="black" stroke-width="1" x1="686.13" x2="677.34" y1="110" y2="130" />
	<rect fill="lawngreen" height="80" stroke="black" width="6.57" x="677.34" y="130" />
	<line stroke="black" stroke-width="1" x1="692.27" x2="683.91" y1="110" y2="130" />
	<rect fill="olive" height="80" stroke="black" width="4.53" x="683.91" y="130" />
	<line stroke="black" stroke-width="1" x1="696.08" x2="688.44" y1="110" y2="130" />
	<rect fill="yellow" height="80" stroke="black" width="32.56" x="688.44" y="130" />
	<line stroke="black" stroke-width="1" x1="721.01" x2="721" y1="110" y2="130" />
	<rect fill="crimson" height="80" stroke="black" width="115.18" x="321" y="230" />
	<line stroke="black" stroke-width="1" x1="423.19" x2="436.18" y1="210" y2="230" />
	<rect fill="blue" height="80" stroke="black" width="77.69" x="436.18" y="230" />
	<line stroke="black" stroke-width="1" x1="510.37" x2="513.87" y1="210" y2="230" />
	<rect fill="lightseagreen" height="80" stroke="black" width="73.21" x="513.87" y="230" />
	<line stroke="black" stroke-width="1" x1="580.6" x2="587.08" y1="210" y2="230" />
	<rect fill="orange" height="80" stroke="black" width="31.4" x="587.08" y="230" />
	<line stroke="black" stroke-width="1" x1="618.56" x2="618.48" y1="210" y2="230" />
	<rect fill="mediumpurple" height="80" stroke="black" width="33.74" x="618.48" y="230" />
	<line stroke="black" stroke-width="1" x1="647.81" x2="652.22" y1="210" y2="230" />
	<rect fill="palegreen" height="80" stroke="black" width="11.34" x="652.22" y="230" />
	<line stroke="black" stroke-width="1" x1="662.71" x2="663.56" y1="210" y2="230" />
	<rect fill="lightcoral" height="80" stroke="black" width="8.53" x="663.56" y="230" />
	<line stroke="black" stroke-width="1" x1="671.3" x2="672.09" y1="210" y2="230" />
	<rect fill="dodgerblue" height="80" stroke="black" width="7.93" x="672.09" y="230" />
	<line stroke="black" stroke-width="1" x1="677.34" x2="680.02" y1="210" y2="230" />
	<rect fill="lawngreen" height="80" stroke="black" width="7.22" x="680.02" y="230" />
	<line stroke="black" stroke-width="1" x1="683.91" x2="687.24" y1="210" y2="230" />
	<rect fill="olive" height="80" stroke="black" width="6.25" x="687.24" y="230" />
	<line stroke="black" stroke-width="1" x1="688.44" x2="693.49" y1="210" y2="230" />
	<rect fill="yellow" height="80" stroke="black" width="27.52" x="693.49" y="230" />
	<line stroke="black" stroke-width="1" x1="721" x2="721.01" y1="210" y2="230" />
	<line stroke="black" stroke-width="1" x1="321" x2="721" y1="330" y2="330" />
	<line stroke="black" stroke-width="1" x1="321" x2="321" y1="330" y2="337.5" />
	<text fill="black" font-family="Arial" font-size="15" stroke="none" text-anchor="middle" x="321" y="352.5">0</text>
	<line stroke="black" stroke-width="1" x1="421" x2="421" y1="330" y2="337.5" />
	<text fill="black" font-family="Arial" font-size="15" stroke="none" text-anchor="middle" x="421" y="352.5">0.25</text>
	<line stroke="black" stroke-width="1" x1="521" x2="521" y1="330" y2="337.5" />
	<text fill="black" font-family="Arial" font-size="15" stroke="none" text-anchor="middle" x="521" y="352.5">0.5</text>
	<line stroke="black" stroke-width="1" x1="621" x2="621" y1="330" y2="337.5" />
	<text fill="black" font-family="Arial" font-size="15" stroke="none" text-anchor="middle" x="621" y="352.5">0.75</text>
	<line stroke="black" stroke-width="1" x1="721" x2="721" y1="330" y2="337.5" />
	<text fill="black" font-family="Arial" font-size="15" stroke="none" text-anchor="middle" x="721" y="352.5">1</text>
	<text fill="black" font-family="Arial" font-size="15" stroke="none" text-anchor="middle" x="521" y="367.5">Relative Abundance in Phylum Level</text>
	<rect fill="crimson" height="11.1111111111111" stroke="black" width="11.1111111111111" x="732.111111111111" y="30" />
	<text fill="black" font-family="Arial" font-size="11.1111111111111" stroke="none" text-anchor="start" x="748.777777777778" y="39.4444444444444">Proteobacteria</text>
	<rect fill="blue" height="11.1111111111111" stroke="black" width="11.1111111111111" x="732.111111111111" y="46.6666666666667" />
	<text fill="black" font-family="Arial" font-size="11.1111111111111" stroke="none" text-anchor="start" x="748.777777777778" y="56.1111111111111">Firmicutes</text>
	<rect fill="lightseagreen" height="11.1111111111111" stroke="black" width="11.1111111111111" x="732.111111111111" y="63.3333333333333" />
	<text fill="black" font-family="Arial" font-size="11.1111111111111" stroke="none" text-anchor="start" x="748.777777777778" y="72.7777777777778">Actinobacteriota</text>
	<rect fill="orange" height="11.1111111111111" stroke="black" width="11.1111111111111" x="732.111111111111" y="80" />
	<text fill="black" font-family="Arial" font-size="11.1111111111111" stroke="none" text-anchor="start" x="748.777777777778" y="89.4444444444444">Chloroflexi</text>
	<rect fill="mediumpurple" height="11.1111111111111" stroke="black" width="11.1111111111111" x="732.111111111111" y="96.6666666666667" />
	<text fill="black" font-family="Arial" font-size="11.1111111111111" stroke="none" text-anchor="start" x="748.777777777778" y="106.111111111111">Bacteroidota</text>
	<rect fill="palegreen" height="11.1111111111111" stroke="black" width="11.1111111111111" x="732.111111111111" y="113.333333333333" />
	<text fill="black" font-family="Arial" font-size="11.1111111111111" stroke="none" text-anchor="start" x="748.777777777778" y="122.777777777778">Patescibacteria</text>
	<rect fill="lightcoral" height="11.1111111111111" stroke="black" width="11.1111111111111" x="732.111111111111" y="130" />
	<text fill="black" font-family="Arial" font-size="11.1111111111111" stroke="none" text-anchor="start" x="748.777777777778" y="139.444444444444">Synergistota</text>
	<rect fill="dodgerblue" height="11.1111111111111" stroke="black" width="11.1111111111111" x="732.111111111111" y="146.666666666667" />
	<text fill="black" font-family="Arial" font-size="11.1111111111111" stroke="none" text-anchor="start" x="748.777777777778" y="156.111111111111">Desulfobacterota</text>
	<rect fill="lawngreen" height="11.1111111111111" stroke="black" width="11.1111111111111" x="732.111111111111" y="163.333333333333" />
	<text fill="black" font-family="Arial" font-size="11.1111111111111" stroke="none" text-anchor="start" x="748.777777777778" y="172.777777777778">Halobacterota</text>
	<rect fill="olive" height="11.1111111111111" stroke="black" width="11.1111111111111" x="732.111111111111" y="180" />
	<text fill="black" font-family="Arial" font-size="11.1111111111111" stroke="none" text-anchor="start" x="748.777777777778" y="189.444444444444">Cloacimonadota</text>
	<rect fill="yellow" height="11.1111111111111" stroke="black" width="11.1111111111111" x="732.111111111111" y="196.666666666667" />
	<text fill="black" font-family="Arial" font-size="11.1111111111111" stroke="none" text-anchor="start" x="748.777777777778" y="206.111111111111">Others</text>
	<line stroke="crimson" x1="18.030303030303" x2="27.1212121212121" y1="23.030303030303" y2="23.030303030303" />
	<text fill="black" font-family="Arial" font-size="6.06060606060606" stroke="none" text-anchor="start" x="30.1515151515152" y="25.1515151515152">Bottom</text>
	<line stroke="blue" x1="18.030303030303" x2="27.1212121212121" y1="32.1212121212121" y2="32.1212121212121" />
	<text fill="black" font-family="Arial" font-size="6.06060606060606" stroke="none" text-anchor="start" x="30.1515151515152" y="34.2424242424242">Middle</text>
	<line stroke="lightseagreen" x1="18.030303030303" x2="27.1212121212121" y1="41.2121212121212" y2="41.2121212121212" />
	<text fill="black" font-family="Arial" font-size="6.06060606060606" stroke="none" text-anchor="start" x="30.1515151515152" y="43.3333333333333">Top</text>
	<!--
	Generated using the Perl SVG Module V2.84
	by Ronan Oger
	Info: http://www.roitsystems.com/
	-->
</svg>