<?xml version="1.0" encoding="UTF-8" standalone="yes"?>
<!DOCTYPE svg PUBLIC "-//W3C//DTD SVG 1.0//EN" "http://www.w3.org/TR/2001/REC-SVG-20010904/DTD/svg10.dtd">
<svg height="450" width="712" xmlns="http://www.w3.org/2000/svg" xmlns:svg="http://www.w3.org/2000/svg" xmlns:xlink="http://www.w3.org/1999/xlink">
	<text fill="black" font-family="Arial" font-size="15" stroke="none" text-anchor="end" x="92.5" y="355">0</text>
	<line stroke="black" stroke-width="2" x1="100" x2="95" y1="350" y2="350" />
	<text fill="black" font-family="Arial" font-size="15" stroke="none" text-anchor="end" x="92.5" y="280">0.25</text>
	<line stroke="black" stroke-width="2" x1="100" x2="95" y1="275" y2="275" />
	<line stroke="black" stroke-dasharray="3 2" stroke-width="0.5" x1="100" x2="550" y1="275" y2="275" />
	<text fill="black" font-family="Arial" font-size="15" stroke="none" text-anchor="end" x="92.5" y="205">0.5</text>
	<line stroke="black" stroke-width="2" x1="100" x2="95" y1="200" y2="200" />
	<line stroke="black" stroke-dasharray="3 2" stroke-width="0.5" x1="100" x2="550" y1="200" y2="200" />
	<text fill="black" font-family="Arial" font-size="15" stroke="none" text-anchor="end" x="92.5" y="130">0.75</text>
	<line stroke="black" stroke-width="2" x1="100" x2="95" y1="125" y2="125" />
	<line stroke="black" stroke-dasharray="3 2" stroke-width="0.5" x1="100" x2="550" y1="125" y2="125" />
	<text fill="black" font-family="Arial" font-size="15" stroke="none" text-anchor="end" x="92.5" y="55">1</text>
	<line stroke="black" stroke-width="2" x1="100" x2="95" y1="50" y2="50" />
	<line stroke="black" stroke-width="1" x1="100" x2="100" y1="50" y2="350" />
	<text fill="black" font-family="Arial" font-size="15" stroke="none" text-anchor="middle" x="325" y="410.574363164907">group Name</text>
	<g transform="rotate(-90,47.5,200)">
		<text fill="black" font-family="Arial" font-size="15" stroke="none" text-anchor="middle" x="47.5" y="200">Relative Abundance</text>
	</g>
	<line stroke="black" stroke-width="2" x1="250" x2="250" y1="350" y2="352.7" />
	<g fill="black" font-family="Arial" font-size="13.5" stroke="none" text-anchor="end" transform="rotate(-45,175,359)">
		<text x="175" y="363.5">Bottom</text>
	</g>
	<rect fill="crimson" height="40.3653" stroke="crimson" width="75" x="137.5" y="309.6347" />
	<rect fill="blue" height="15.3891" stroke="blue" width="75" x="137.5" y="294.2456" />
	<rect fill="lightseagreen" height="1.839" stroke="lightseagreen" width="75" x="137.5" y="292.4066" />
	<rect fill="orange" height="30.0945" stroke="orange" width="75" x="137.5" y="262.3121" />
	<rect fill="mediumpurple" height="3.8274" stroke="mediumpurple" width="75" x="137.5" y="258.4847" />
	<rect fill="palegreen" height="21.6696" stroke="palegreen" width="75" x="137.5" y="236.8151" />
	<rect fill="lightcoral" height="3.5565" stroke="lightcoral" width="75" x="137.5" y="233.2586" />
	<rect fill="dodgerblue" height="10.0452" stroke="dodgerblue" width="75" x="137.5" y="223.2134" />
	<rect fill="lawngreen" height="12.0648" stroke="lawngreen" width="75" x="137.5" y="211.1486" />
	<rect fill="olive" height="7.9461" stroke="olive" width="75" x="137.5" y="203.2025" />
	<rect fill="yellow" height="153.2025" stroke="yellow" width="75" x="137.5" y="50.0000000000001" />
	<line stroke="black" stroke-width="2" x1="400" x2="400" y1="350" y2="352.7" />
	<g fill="black" font-family="Arial" font-size="13.5" stroke="none" text-anchor="end" transform="rotate(-45,325,359)">
		<text x="325" y="363.5">Middle</text>
	</g>
	<rect fill="crimson" height="59.061" stroke="crimson" width="75" x="287.5" y="290.939" />
	<rect fill="blue" height="11.1246" stroke="blue" width="75" x="287.5" y="279.8144" />
	<rect fill="lightseagreen" height="1.2111" stroke="lightseagreen" width="75" x="287.5" y="278.6033" />
	<rect fill="orange" height="9.4623" stroke="orange" width="75" x="287.5" y="269.141" />
	<rect fill="mediumpurple" height="3.8829" stroke="mediumpurple" width="75" x="287.5" y="265.2581" />
	<rect fill="palegreen" height="22.3983" stroke="palegreen" width="75" x="287.5" y="242.8598" />
	<rect fill="lightcoral" height="1.9848" stroke="lightcoral" width="75" x="287.5" y="240.875" />
	<rect fill="dodgerblue" height="7.0959" stroke="dodgerblue" width="75" x="287.5" y="233.7791" />
	<rect fill="lawngreen" height="6.1071" stroke="lawngreen" width="75" x="287.5" y="227.672" />
	<rect fill="olive" height="13.0989" stroke="olive" width="75" x="287.5" y="214.5731" />
	<rect fill="yellow" height="164.5731" stroke="yellow" width="75" x="287.5" y="50.0000000000001" />
	<line stroke="black" stroke-width="2" x1="550" x2="550" y1="350" y2="352.7" />
	<g fill="black" font-family="Arial" font-size="13.5" stroke="none" text-anchor="end" transform="rotate(-45,475,359)">
		<text x="475" y="363.5">Top</text>
	</g>
	<rect fill="crimson" height="40.0704" stroke="crimson" width="75" x="437.5" y="309.9296" />
	<rect fill="blue" height="37.0932" stroke="blue" width="75" x="437.5" y="272.8364" />
	<rect fill="lightseagreen" height="26.0589" stroke="lightseagreen" width="75" x="437.5" y="246.7775" />
	<rect fill="orange" height="13.2897" stroke="orange" width="75" x="437.5" y="233.4878" />
	<rect fill="mediumpurple" height="24.2442" stroke="mediumpurple" width="75" x="437.5" y="209.2436" />
	<rect fill="palegreen" height="10.7811" stroke="palegreen" width="75" x="437.5" y="198.4625" />
	<rect fill="lightcoral" height="12.0441" stroke="lightcoral" width="75" x="437.5" y="186.4184" />
	<rect fill="dodgerblue" height="3.2652" stroke="dodgerblue" width="75" x="437.5" y="183.1532" />
	<rect fill="lawngreen" height="6.2181" stroke="lawngreen" width="75" x="437.5" y="176.9351" />
	<rect fill="olive" height="5.4513" stroke="olive" width="75" x="437.5" y="171.4838" />
	<rect fill="yellow" height="121.4838" stroke="yellow" width="75" x="437.5" y="50" />
	<line stroke="black" stroke-width="2" x1="100" x2="550" y1="350" y2="350" />
	<line stroke="black" stroke-width="2" x1="100" x2="100" y1="50" y2="352.7" />
	<rect fill="yellow" height="7" stroke="yellow" width="7" x="562" y="97" />
	<text fill="black" font-family="Arial" font-size="10" stroke="none" x="572.5" y="104">Others</text>
	<rect fill="olive" height="7" stroke="olive" width="7" x="562" y="109" />
	<text fill="black" font-family="Arial" font-size="10" stroke="none" x="572.5" y="116">Sedimentibacteraceae</text>
	<rect fill="lawngreen" height="7" stroke="lawngreen" width="7" x="562" y="121" />
	<text fill="black" font-family="Arial" font-size="10" stroke="none" x="572.5" y="128">Peptostreptococcaceae</text>
	<rect fill="dodgerblue" height="7" stroke="dodgerblue" width="7" x="562" y="133" />
	<text fill="black" font-family="Arial" font-size="10" stroke="none" x="572.5" y="140">Hungateiclostridiaceae</text>
	<rect fill="lightcoral" height="7" stroke="lightcoral" width="7" x="562" y="145" />
	<text fill="black" font-family="Arial" font-size="10" stroke="none" x="572.5" y="152">Xanthomonadaceae</text>
	<rect fill="palegreen" height="7" stroke="palegreen" width="7" x="562" y="157" />
	<text fill="black" font-family="Arial" font-size="10" stroke="none" x="572.5" y="164">Intrasporangiaceae</text>
	<rect fill="mediumpurple" height="7" stroke="mediumpurple" width="7" x="562" y="169" />
	<text fill="black" font-family="Arial" font-size="10" stroke="none" x="572.5" y="176">Planococcaceae</text>
	<rect fill="orange" height="7" stroke="orange" width="7" x="562" y="181" />
	<text fill="black" font-family="Arial" font-size="10" stroke="none" x="572.5" y="188">Microtrichaceae</text>
	<rect fill="lightseagreen" height="7" stroke="lightseagreen" width="7" x="562" y="193" />
	<text fill="black" font-family="Arial" font-size="10" stroke="none" x="572.5" y="200">Micrococcaceae</text>
	<rect fill="blue" height="7" stroke="blue" width="7" x="562" y="205" />
	<text fill="black" font-family="Arial" font-size="10" stroke="none" x="572.5" y="212">Moraxellaceae</text>
	<rect fill="crimson" height="7" stroke="crimson" width="7" x="562" y="217" />
	<text fill="black" font-family="Arial" font-size="10" stroke="none" x="572.5" y="224">Methanosaetaceae</text>
	<!-- 
	Generated using the Perl SVG Module V2.50
	by Ronan Oger
	Info: http://www.roitsystems.com/
 -->
</svg>