<?xml version="1.0" encoding="UTF-8" standalone="yes"?>
<!DOCTYPE svg PUBLIC "-//W3C//DTD SVG 1.0//EN" "http://www.w3.org/TR/2001/REC-SVG-20010904/DTD/svg10.dtd">
<svg height="450" width="652" xmlns="http://www.w3.org/2000/svg" xmlns:svg="http://www.w3.org/2000/svg" xmlns:xlink="http://www.w3.org/1999/xlink">
	<text fill="black" font-family="Arial" font-size="15" stroke="none" text-anchor="end" x="92.5" y="355">0</text>
	<line stroke="black" stroke-width="2" x1="100" x2="95" y1="350" y2="350" />
	<text fill="black" font-family="Arial" font-size="15" stroke="none" text-anchor="end" x="92.5" y="280">0.25</text>
	<line stroke="black" stroke-width="2" x1="100" x2="95" y1="275" y2="275" />
	<line stroke="black" stroke-dasharray="3 2" stroke-width="0.5" x1="100" x2="550" y1="275" y2="275" />
	<text fill="black" font-family="Arial" font-size="15" stroke="none" text-anchor="end" x="92.5" y="205">0.5</text>
	<line stroke="black" stroke-width="2" x1="100" x2="95" y1="200" y2="200" />
	<line stroke="black" stroke-dasharray="3 2" stroke-width="0.5" x1="100" x2="550" y1="200" y2="200" />
	<text fill="black" font-family="Arial" font-size="15" stroke="none" text-anchor="end" x="92.5" y="130">0.75</text>
	<line stroke="black" stroke-width="2" x1="100" x2="95" y1="125" y2="125" />
	<line stroke="black" stroke-dasharray="3 2" stroke-width="0.5" x1="100" x2="550" y1="125" y2="125" />
	<text fill="black" font-family="Arial" font-size="15" stroke="none" text-anchor="end" x="92.5" y="55">1</text>
	<line stroke="black" stroke-width="2" x1="100" x2="95" y1="50" y2="50" />
	<line stroke="black" stroke-width="1" x1="100" x2="100" y1="50" y2="350" />
	<text fill="black" font-family="Arial" font-size="15" stroke="none" text-anchor="middle" x="325" y="410.574363164907">Sample Name</text>
	<g transform="rotate(-90,47.5,200)">
		<text fill="black" font-family="Arial" font-size="15" stroke="none" text-anchor="middle" x="47.5" y="200">Relative Abundance</text>
	</g>
	<line stroke="black" stroke-width="2" x1="325" x2="325" y1="350" y2="352.7" />
	<g fill="black" font-family="Arial" font-size="13.5" stroke="none" text-anchor="end" transform="rotate(-45,212.5,359)">
		<text x="212.5" y="363.5">Day.1</text>
	</g>
	<rect fill="crimson" height="3.74438154991519" stroke="crimson" width="112.5" x="156.25" y="346.255618450085" />
	<rect fill="blue" height="3.33670888756204" stroke="blue" width="112.5" x="156.25" y="342.918909562523" />
	<rect fill="lightseagreen" height="3.24183320037644" stroke="lightseagreen" width="112.5" x="156.25" y="339.677076362146" />
	<rect fill="orange" height="2.49414884726599" stroke="orange" width="112.5" x="156.25" y="337.18292751488" />
	<rect fill="mediumpurple" height="1.93973777120949" stroke="mediumpurple" width="112.5" x="156.25" y="335.243189743671" />
	<rect fill="palegreen" height="1.80165104726269" stroke="palegreen" width="112.5" x="156.25" y="333.441538696408" />
	<rect fill="lightcoral" height="1.40989451449222" stroke="lightcoral" width="112.5" x="156.25" y="332.031644181916" />
	<rect fill="dodgerblue" height="1.35014615024641" stroke="dodgerblue" width="112.5" x="156.25" y="330.681498031669" />
	<rect fill="lawngreen" height="1.39574008939196" stroke="lawngreen" width="112.5" x="156.25" y="329.285757942278" />
	<rect fill="olive" height="1.25414344129134" stroke="olive" width="112.5" x="156.25" y="328.031614500986" />
	<rect fill="yellow" height="278.031614500986" stroke="yellow" width="112.5" x="156.25" y="50" />
	<line stroke="black" stroke-width="2" x1="550" x2="550" y1="350" y2="352.7" />
	<g fill="black" font-family="Arial" font-size="13.5" stroke="none" text-anchor="end" transform="rotate(-45,437.5,359)">
		<text x="437.5" y="363.5">Day.29</text>
	</g>
	<rect fill="crimson" height="3.64045483065095" stroke="crimson" width="112.5" x="381.25" y="346.359545169349" />
	<rect fill="blue" height="3.2161177354899" stroke="blue" width="112.5" x="381.25" y="343.143427433859" />
	<rect fill="lightseagreen" height="2.78856967944988" stroke="lightseagreen" width="112.5" x="381.25" y="340.354857754409" />
	<rect fill="orange" height="2.53763604008584" stroke="orange" width="112.5" x="381.25" y="337.817221714323" />
	<rect fill="mediumpurple" height="1.77387341219276" stroke="mediumpurple" width="112.5" x="381.25" y="336.043348302131" />
	<rect fill="palegreen" height="1.6980371387618" stroke="palegreen" width="112.5" x="381.25" y="334.345311163369" />
	<rect fill="lightcoral" height="1.49222652985172" stroke="lightcoral" width="112.5" x="381.25" y="332.853084633517" />
	<rect fill="dodgerblue" height="1.47789969412554" stroke="dodgerblue" width="112.5" x="381.25" y="331.375184939392" />
	<rect fill="lawngreen" height="1.41620335979773" stroke="lawngreen" width="112.5" x="381.25" y="329.958981579594" />
	<rect fill="olive" height="1.3046581609626" stroke="olive" width="112.5" x="381.25" y="328.654323418631" />
	<rect fill="yellow" height="278.654323418631" stroke="yellow" width="112.5" x="381.25" y="50" />
	<line stroke="black" stroke-width="2" x1="100" x2="550" y1="350" y2="350" />
	<line stroke="black" stroke-width="2" x1="100" x2="100" y1="50" y2="352.7" />
	<rect fill="yellow" height="7" stroke="yellow" width="7" x="562" y="97" />
	<text fill="black" font-family="Arial" font-size="10" stroke="none" x="572.5" y="104">Others</text>
	<rect fill="olive" height="7" stroke="olive" width="7" x="562" y="109" />
	<text fill="black" font-family="Arial" font-size="10" stroke="none" x="572.5" y="116">EC:6.3.5.7</text>
	<rect fill="lawngreen" height="7" stroke="lawngreen" width="7" x="562" y="121" />
	<text fill="black" font-family="Arial" font-size="10" stroke="none" x="572.5" y="128">EC:2.7.11.1</text>
	<rect fill="dodgerblue" height="7" stroke="dodgerblue" width="7" x="562" y="133" />
	<text fill="black" font-family="Arial" font-size="10" stroke="none" x="572.5" y="140">EC:2.3.1.9</text>
	<rect fill="lightcoral" height="7" stroke="lightcoral" width="7" x="562" y="145" />
	<text fill="black" font-family="Arial" font-size="10" stroke="none" x="572.5" y="152">EC:1.1.1.100</text>
	<rect fill="palegreen" height="7" stroke="palegreen" width="7" x="562" y="157" />
	<text fill="black" font-family="Arial" font-size="10" stroke="none" x="572.5" y="164">EC:2.7.7.6</text>
	<rect fill="mediumpurple" height="7" stroke="mediumpurple" width="7" x="562" y="169" />
	<text fill="black" font-family="Arial" font-size="10" stroke="none" x="572.5" y="176">EC:5.2.1.8</text>
	<rect fill="orange" height="7" stroke="orange" width="7" x="562" y="181" />
	<text fill="black" font-family="Arial" font-size="10" stroke="none" x="572.5" y="188">EC:2.7.13.3</text>
	<rect fill="lightseagreen" height="7" stroke="lightseagreen" width="7" x="562" y="193" />
	<text fill="black" font-family="Arial" font-size="10" stroke="none" x="572.5" y="200">EC:1.6.5.3</text>
	<rect fill="blue" height="7" stroke="blue" width="7" x="562" y="205" />
	<text fill="black" font-family="Arial" font-size="10" stroke="none" x="572.5" y="212">EC:3.6.4.12</text>
	<rect fill="crimson" height="7" stroke="crimson" width="7" x="562" y="217" />
	<text fill="black" font-family="Arial" font-size="10" stroke="none" x="572.5" y="224">EC:2.7.7.7</text>
	<!--
	Generated using the Perl SVG Module V2.87
	by Ronan Oger

	-->
</svg>