<?xml version="1.0" encoding="UTF-8" standalone="yes"?>
<!DOCTYPE svg PUBLIC "-//W3C//DTD SVG 1.0//EN" "http://www.w3.org/TR/2001/REC-SVG-20010904/DTD/svg10.dtd">
<svg height="450" width="748" xmlns="http://www.w3.org/2000/svg" xmlns:svg="http://www.w3.org/2000/svg" xmlns:xlink="http://www.w3.org/1999/xlink">
	<text fill="black" font-family="Arial" font-size="15" stroke="none" text-anchor="end" x="92.5" y="355">0</text>
	<line stroke="black" stroke-width="2" x1="100" x2="95" y1="350" y2="350" />
	<text fill="black" font-family="Arial" font-size="15" stroke="none" text-anchor="end" x="92.5" y="280">0.25</text>
	<line stroke="black" stroke-width="2" x1="100" x2="95" y1="275" y2="275" />
	<line stroke="black" stroke-dasharray="3 2" stroke-width="0.5" x1="100" x2="550" y1="275" y2="275" />
	<text fill="black" font-family="Arial" font-size="15" stroke="none" text-anchor="end" x="92.5" y="205">0.5</text>
	<line stroke="black" stroke-width="2" x1="100" x2="95" y1="200" y2="200" />
	<line stroke="black" stroke-dasharray="3 2" stroke-width="0.5" x1="100" x2="550" y1="200" y2="200" />
	<text fill="black" font-family="Arial" font-size="15" stroke="none" text-anchor="end" x="92.5" y="130">0.75</text>
	<line stroke="black" stroke-width="2" x1="100" x2="95" y1="125" y2="125" />
	<line stroke="black" stroke-dasharray="3 2" stroke-width="0.5" x1="100" x2="550" y1="125" y2="125" />
	<text fill="black" font-family="Arial" font-size="15" stroke="none" text-anchor="end" x="92.5" y="55">1</text>
	<line stroke="black" stroke-width="2" x1="100" x2="95" y1="50" y2="50" />
	<line stroke="black" stroke-width="1" x1="100" x2="100" y1="50" y2="350" />
	<text fill="black" font-family="Arial" font-size="15" stroke="none" text-anchor="middle" x="325" y="394.537181582454">sample Name</text>
	<g transform="rotate(-90,47.5,200)">
		<text fill="black" font-family="Arial" font-size="15" stroke="none" text-anchor="middle" x="47.5" y="200">Relative Abundance</text>
	</g>
	<line stroke="black" stroke-width="2" x1="175" x2="175" y1="350" y2="352.7" />
	<g fill="black" font-family="Arial" font-size="13.5" stroke="none" text-anchor="end" transform="rotate(-45,137.5,359)">
		<text x="137.5" y="363.5">A4</text>
	</g>
	<rect fill="crimson" height="52.4925397302738" stroke="crimson" width="37.5" x="118.75" y="297.507460269726" />
	<rect fill="blue" height="0.582942006523398" stroke="blue" width="37.5" x="118.75" y="296.924518263203" />
	<rect fill="lightseagreen" height="0.208193573758357" stroke="lightseagreen" width="37.5" x="118.75" y="296.716324689444" />
	<rect fill="orange" height="17.6825741978764" stroke="orange" width="37.5" x="118.75" y="279.033750491568" />
	<rect fill="mediumpurple" height="16.3154363968632" stroke="mediumpurple" width="37.5" x="118.75" y="262.718314094705" />
	<rect fill="palegreen" height="5.61428670568368" stroke="palegreen" width="37.5" x="118.75" y="257.104027389021" />
	<rect fill="lightcoral" height="4.61495755164357" stroke="lightcoral" width="37.5" x="118.75" y="252.489069837378" />
	<rect fill="dodgerblue" height="11.2632723403271" stroke="dodgerblue" width="37.5" x="118.75" y="241.22579749705" />
	<rect fill="lawngreen" height="9.33401189016633" stroke="lawngreen" width="37.5" x="118.75" y="231.891785606884" />
	<rect fill="olive" height="0.82583450924148" stroke="olive" width="37.5" x="118.75" y="231.065951097643" />
	<rect fill="yellow" height="6.89120729140161" stroke="yellow" width="37.5" x="118.75" y="224.174743806241" />
	<rect fill="fuchsia" height="8.22364616345508" stroke="fuchsia" width="37.5" x="118.75" y="215.951097642786" />
	<rect fill="salmon" height="5.80166092206621" stroke="salmon" width="37.5" x="118.75" y="210.14943672072" />
	<rect fill="mediumslateblue" height="0.14573550163085" stroke="mediumslateblue" width="37.5" x="118.75" y="210.003701219089" />
	<rect fill="darkviolet" height="0.687038793402576" stroke="darkviolet" width="37.5" x="118.75" y="209.316662425686" />
	<rect fill="sienna" height="3.78912304240209" stroke="sienna" width="37.5" x="118.75" y="205.527539383284" />
	<rect fill="tan" height="6.05149321057623" stroke="tan" width="37.5" x="118.75" y="199.476046172708" />
	<rect fill="chocolate" height="0.291471003261699" stroke="chocolate" width="37.5" x="118.75" y="199.184575169446" />
	<rect fill="turquoise" height="2.72039603044253" stroke="turquoise" width="37.5" x="118.75" y="196.464179139004" />
	<rect fill="cadetblue" height="0.0624580721275071" stroke="cadetblue" width="37.5" x="118.75" y="196.401721066876" />
	<rect fill="silver" height="3.66420689814708" stroke="silver" width="37.5" x="118.75" y="192.737514168729" />
	<rect fill="aliceblue" height="1.89456152120105" stroke="aliceblue" width="37.5" x="118.75" y="190.842952647528" />
	<rect fill="black" height="0.700918364986467" stroke="black" width="37.5" x="118.75" y="190.142034282542" />
	<rect fill="aliceblue" height="0.770316222905919" stroke="aliceblue" width="37.5" x="118.75" y="189.371718059636" />
	<rect fill="antiquewhite" height="1.10342594091929" stroke="antiquewhite" width="37.5" x="118.75" y="188.268292118716" />
	<rect fill="aqua" height="0.00693978579194523" stroke="aqua" width="37.5" x="118.75" y="188.261352332925" />
	<rect fill="aquamarine" height="0.187374216382521" stroke="aquamarine" width="37.5" x="118.75" y="188.073978116542" />
	<rect fill="azure" height="0.964630225080387" stroke="azure" width="37.5" x="118.75" y="187.109347891462" />
	<rect fill="beige" height="137.1093478914" stroke="beige" width="37.5" x="118.75" y="50.0000000000616" />
	<line stroke="black" stroke-width="2" x1="250" x2="250" y1="350" y2="352.7" />
	<g fill="black" font-family="Arial" font-size="13.5" stroke="none" text-anchor="end" transform="rotate(-45,212.5,359)">
		<text x="212.5" y="363.5">A5</text>
	</g>
	<rect fill="crimson" height="58.2803210807559" stroke="crimson" width="37.5" x="193.75" y="291.719678919244" />
	<rect fill="blue" height="0.805015151865645" stroke="blue" width="37.5" x="193.75" y="290.914663767378" />
	<rect fill="lightseagreen" height="0.131855930046959" stroke="lightseagreen" width="37.5" x="193.75" y="290.782807837331" />
	<rect fill="orange" height="1.66554859006685" stroke="orange" width="37.5" x="193.75" y="289.117259247265" />
	<rect fill="mediumpurple" height="15.4132642439103" stroke="mediumpurple" width="37.5" x="193.75" y="273.703995003354" />
	<rect fill="palegreen" height="1.38795715838904" stroke="palegreen" width="37.5" x="193.75" y="272.316037844965" />
	<rect fill="lightcoral" height="5.84329963681788" stroke="lightcoral" width="37.5" x="193.75" y="266.472738208147" />
	<rect fill="dodgerblue" height="13.0190381456892" stroke="dodgerblue" width="37.5" x="193.75" y="253.453700062458" />
	<rect fill="lawngreen" height="8.81352795577044" stroke="lawngreen" width="37.5" x="193.75" y="244.640172106688" />
	<rect fill="olive" height="3.63644775497931" stroke="olive" width="37.5" x="193.75" y="241.003724351708" />
	<rect fill="yellow" height="2.05417659441579" stroke="yellow" width="37.5" x="193.75" y="238.949547757293" />
	<rect fill="fuchsia" height="9.66712160817969" stroke="fuchsia" width="37.5" x="193.75" y="229.282426149113" />
	<rect fill="salmon" height="9.32013231858243" stroke="salmon" width="37.5" x="193.75" y="219.96229383053" />
	<rect fill="mediumslateblue" height="0.291471003261699" stroke="mediumslateblue" width="37.5" x="193.75" y="219.670822827269" />
	<rect fill="darkviolet" height="1.44347544472461" stroke="darkviolet" width="37.5" x="193.75" y="218.227347382544" />
	<rect fill="purple" height="0.0208193573758357" stroke="purple" width="37.5" x="193.75" y="218.206528025168" />
	<rect fill="sienna" height="4.42758333526104" stroke="sienna" width="37.5" x="193.75" y="213.778944689907" />
	<rect fill="tan" height="6.3082652848782" stroke="tan" width="37.5" x="193.75" y="207.470679405029" />
	<rect fill="chocolate" height="0.180434430590576" stroke="chocolate" width="37.5" x="193.75" y="207.290244974439" />
	<rect fill="turquoise" height="3.69196604131485" stroke="turquoise" width="37.5" x="193.75" y="203.598278933124" />
	<rect fill="cadetblue" height="0.187374216382521" stroke="cadetblue" width="37.5" x="193.75" y="203.410904716741" />
	<rect fill="silver" height="3.33109718013372" stroke="silver" width="37.5" x="193.75" y="200.079807536607" />
	<rect fill="aliceblue" height="2.35952716926138" stroke="aliceblue" width="37.5" x="193.75" y="197.720280367346" />
	<rect fill="black" height="0.603761363899233" stroke="black" width="37.5" x="193.75" y="197.116519003447" />
	<rect fill="aliceblue" height="1.29080015730181" stroke="aliceblue" width="37.5" x="193.75" y="195.825718846145" />
	<rect fill="antiquewhite" height="1.20752272779847" stroke="antiquewhite" width="37.5" x="193.75" y="194.618196118347" />
	<rect fill="aqua" height="0.0138795715838904" stroke="aqua" width="37.5" x="193.75" y="194.604316546763" />
	<rect fill="aquamarine" height="0.298410789053644" stroke="aquamarine" width="37.5" x="193.75" y="194.305905757709" />
	<rect fill="azure" height="1.29773994309376" stroke="azure" width="37.5" x="193.75" y="193.008165814615" />
	<rect fill="beige" height="143.0081658147" stroke="beige" width="37.5" x="193.75" y="49.9999999999152" />
	<line stroke="black" stroke-width="2" x1="325" x2="325" y1="350" y2="352.7" />
	<g fill="black" font-family="Arial" font-size="13.5" stroke="none" text-anchor="end" transform="rotate(-45,287.5,359)">
		<text x="287.5" y="363.5">A6</text>
	</g>
	<rect fill="crimson" height="49.6749866987439" stroke="crimson" width="37.5" x="268.75" y="300.325013301256" />
	<rect fill="blue" height="0.256772074301973" stroke="blue" width="37.5" x="268.75" y="300.068241226954" />
	<rect fill="lightseagreen" height="0.0902172152952879" stroke="lightseagreen" width="37.5" x="268.75" y="299.978024011659" />
	<rect fill="orange" height="21.5966133845335" stroke="orange" width="37.5" x="268.75" y="278.381410627125" />
	<rect fill="mediumpurple" height="16.6624256864605" stroke="mediumpurple" width="37.5" x="268.75" y="261.718984940665" />
	<rect fill="palegreen" height="14.9066598810983" stroke="palegreen" width="37.5" x="268.75" y="246.812325059566" />
	<rect fill="lightcoral" height="6.00291471003261" stroke="lightcoral" width="37.5" x="268.75" y="240.809410349534" />
	<rect fill="dodgerblue" height="10.6248120474681" stroke="dodgerblue" width="37.5" x="268.75" y="230.184598302066" />
	<rect fill="lawngreen" height="9.00784195794489" stroke="lawngreen" width="37.5" x="268.75" y="221.176756344121" />
	<rect fill="olive" height="6.34990399962987" stroke="olive" width="37.5" x="268.75" y="214.826852344491" />
	<rect fill="yellow" height="5.48937056142867" stroke="yellow" width="37.5" x="268.75" y="209.337481783062" />
	<rect fill="fuchsia" height="7.17573850887135" stroke="fuchsia" width="37.5" x="268.75" y="202.161743274191" />
	<rect fill="salmon" height="9.09805917324018" stroke="salmon" width="37.5" x="268.75" y="193.063684100951" />
	<rect fill="mediumslateblue" height="0.492724791228111" stroke="mediumslateblue" width="37.5" x="268.75" y="192.570959309723" />
	<rect fill="darkviolet" height="1.21446251359041" stroke="darkviolet" width="37.5" x="268.75" y="191.356496796132" />
	<rect fill="purple" height="0.0763376437113975" stroke="purple" width="37.5" x="268.75" y="191.280159152421" />
	<rect fill="sienna" height="3.64338754077123" stroke="sienna" width="37.5" x="268.75" y="187.63677161165" />
	<rect fill="tan" height="4.67047583797914" stroke="tan" width="37.5" x="268.75" y="182.96629577367" />
	<rect fill="chocolate" height="0.291471003261699" stroke="chocolate" width="37.5" x="268.75" y="182.674824770409" />
	<rect fill="turquoise" height="2.29012931134192" stroke="turquoise" width="37.5" x="268.75" y="180.384695459067" />
	<rect fill="cadetblue" height="0.201253787966411" stroke="cadetblue" width="37.5" x="268.75" y="180.1834416711" />
	<rect fill="silver" height="2.58854010039557" stroke="silver" width="37.5" x="268.75" y="177.594901570705" />
	<rect fill="aliceblue" height="2.53302181406001" stroke="aliceblue" width="37.5" x="268.75" y="175.061879756645" />
	<rect fill="black" height="0.666219436026741" stroke="black" width="37.5" x="268.75" y="174.395660320618" />
	<rect fill="aliceblue" height="0.999329154040113" stroke="aliceblue" width="37.5" x="268.75" y="173.396331166578" />
	<rect fill="antiquewhite" height="1.04790765458373" stroke="antiquewhite" width="37.5" x="268.75" y="172.348423511994" />
	<rect fill="aqua" height="0.034698928959726" stroke="aqua" width="37.5" x="268.75" y="172.313724583035" />
	<rect fill="aquamarine" height="0.194314002174466" stroke="aquamarine" width="37.5" x="268.75" y="172.11941058086" />
	<rect fill="azure" height="0.992389368248166" stroke="azure" width="37.5" x="268.75" y="171.127021212612" />
	<rect fill="beige" height="121.1270212125" stroke="beige" width="37.5" x="268.75" y="50.0000000001119" />
	<line stroke="black" stroke-width="2" x1="400" x2="400" y1="350" y2="352.7" />
	<g fill="black" font-family="Arial" font-size="13.5" stroke="none" text-anchor="end" transform="rotate(-45,362.5,359)">
		<text x="362.5" y="363.5">A52</text>
	</g>
	<rect fill="crimson" height="28.2379883874251" stroke="crimson" width="37.5" x="343.75" y="321.762011612575" />
	<rect fill="blue" height="2.9771681047445" stroke="blue" width="37.5" x="343.75" y="318.78484350783" />
	<rect fill="lightseagreen" height="3.55317032547594" stroke="lightseagreen" width="37.5" x="343.75" y="315.231673182354" />
	<rect fill="orange" height="40.7920608850539" stroke="orange" width="37.5" x="343.75" y="274.439612297301" />
	<rect fill="mediumpurple" height="10.7011496911796" stroke="mediumpurple" width="37.5" x="343.75" y="263.738462606121" />
	<rect fill="palegreen" height="0.471905433852276" stroke="palegreen" width="37.5" x="343.75" y="263.266557172269" />
	<rect fill="lightcoral" height="14.6151888778366" stroke="lightcoral" width="37.5" x="343.75" y="248.651368294432" />
	<rect fill="dodgerblue" height="4.62883712322747" stroke="dodgerblue" width="37.5" x="343.75" y="244.022531171205" />
	<rect fill="lawngreen" height="5.0174651275764" stroke="lawngreen" width="37.5" x="343.75" y="239.005066043628" />
	<rect fill="olive" height="0.818894723449536" stroke="olive" width="37.5" x="343.75" y="238.186171320179" />
	<rect fill="yellow" height="10.0418700409447" stroke="yellow" width="37.5" x="343.75" y="228.144301279234" />
	<rect fill="fuchsia" height="9.93777325406556" stroke="fuchsia" width="37.5" x="343.75" y="218.206528025168" />
	<rect fill="salmon" height="0.194314002174466" stroke="salmon" width="37.5" x="343.75" y="218.012214022994" />
	<rect fill="mediumslateblue" height="0.270651645885864" stroke="mediumslateblue" width="37.5" x="343.75" y="217.741562377108" />
	<rect fill="darkviolet" height="1.69330773323463" stroke="darkviolet" width="37.5" x="343.75" y="216.048254643873" />
	<rect fill="purple" height="0.333109718013372" stroke="purple" width="37.5" x="343.75" y="215.71514492586" />
	<rect fill="sienna" height="7.12022022253581" stroke="sienna" width="37.5" x="343.75" y="208.594924703324" />
	<rect fill="tan" height="4.89948876911334" stroke="tan" width="37.5" x="343.75" y="203.695435934211" />
	<rect fill="chocolate" height="5.65592542043535" stroke="chocolate" width="37.5" x="343.75" y="198.039510513775" />
	<rect fill="skyblue" height="0.943810867704549" stroke="skyblue" width="37.5" x="343.75" y="197.095699646071" />
	<rect fill="turquoise" height="4.86478984015359" stroke="turquoise" width="37.5" x="343.75" y="192.230909805917" />
	<rect fill="cadetblue" height="0.215133359550302" stroke="cadetblue" width="37.5" x="343.75" y="192.015776446367" />
	<rect fill="silver" height="2.53996159985195" stroke="silver" width="37.5" x="343.75" y="189.475814846515" />
	<rect fill="aliceblue" height="3.14372296375119" stroke="aliceblue" width="37.5" x="343.75" y="186.332091882764" />
	<rect fill="black" height="2.70651645885864" stroke="black" width="37.5" x="343.75" y="183.625575423905" />
	<rect fill="aliceblue" height="0.555182863355619" stroke="aliceblue" width="37.5" x="343.75" y="183.07039256055" />
	<rect fill="antiquewhite" height="1.21446251359041" stroke="antiquewhite" width="37.5" x="343.75" y="181.855930046959" />
	<rect fill="aqua" height="0.312290360637534" stroke="aqua" width="37.5" x="343.75" y="181.543639686322" />
	<rect fill="aquamarine" height="0.47884521964422" stroke="aquamarine" width="37.5" x="343.75" y="181.064794466678" />
	<rect fill="azure" height="2.45668417034861" stroke="azure" width="37.5" x="343.75" y="178.608110296329" />
	<rect fill="beige" height="128.6081102964" stroke="beige" width="37.5" x="343.75" y="49.9999999999289" />
	<line stroke="black" stroke-width="2" x1="475" x2="475" y1="350" y2="352.7" />
	<g fill="black" font-family="Arial" font-size="13.5" stroke="none" text-anchor="end" transform="rotate(-45,437.5,359)">
		<text x="437.5" y="363.5">A53</text>
	</g>
	<rect fill="crimson" height="59.8417728839436" stroke="crimson" width="37.5" x="418.75" y="290.158227116056" />
	<rect fill="blue" height="1.28386037150987" stroke="blue" width="37.5" x="418.75" y="288.874366744547" />
	<rect fill="lightseagreen" height="1.47817437368433" stroke="lightseagreen" width="37.5" x="418.75" y="287.396192370862" />
	<rect fill="orange" height="15.8296513914271" stroke="orange" width="37.5" x="418.75" y="271.566540979435" />
	<rect fill="mediumpurple" height="5.22565870133475" stroke="mediumpurple" width="37.5" x="418.75" y="266.3408822781" />
	<rect fill="palegreen" height="1.7488260195702" stroke="palegreen" width="37.5" x="418.75" y="264.59205625853" />
	<rect fill="lightcoral" height="7.43251058317332" stroke="lightcoral" width="37.5" x="418.75" y="257.159545675357" />
	<rect fill="dodgerblue" height="13.178653218904" stroke="dodgerblue" width="37.5" x="418.75" y="243.980892456453" />
	<rect fill="lawngreen" height="11.277151911911" stroke="lawngreen" width="37.5" x="418.75" y="232.703740544542" />
	<rect fill="olive" height="0.104096786879178" stroke="olive" width="37.5" x="418.75" y="232.599643757663" />
	<rect fill="yellow" height="5.56570820514006" stroke="yellow" width="37.5" x="418.75" y="227.033935552523" />
	<rect fill="fuchsia" height="8.92456452844155" stroke="fuchsia" width="37.5" x="418.75" y="218.109371024081" />
	<rect fill="salmon" height="1.35325822942932" stroke="salmon" width="37.5" x="418.75" y="216.756112794652" />
	<rect fill="mediumslateblue" height="0.124916144255014" stroke="mediumslateblue" width="37.5" x="418.75" y="216.631196650397" />
	<rect fill="darkviolet" height="0.936871081912605" stroke="darkviolet" width="37.5" x="418.75" y="215.694325568484" />
	<rect fill="purple" height="0.0902172152952879" stroke="purple" width="37.5" x="418.75" y="215.604108353189" />
	<rect fill="sienna" height="4.33042633417383" stroke="sienna" width="37.5" x="418.75" y="211.273682019015" />
	<rect fill="tan" height="5.9057577089454" stroke="tan" width="37.5" x="418.75" y="205.36792431007" />
	<rect fill="chocolate" height="0.527423720187837" stroke="chocolate" width="37.5" x="418.75" y="204.840500589882" />
	<rect fill="skyblue" height="0.284531217469754" stroke="skyblue" width="37.5" x="418.75" y="204.555969372412" />
	<rect fill="turquoise" height="3.09514446320757" stroke="turquoise" width="37.5" x="418.75" y="201.460824909205" />
	<rect fill="silver" height="3.51153161072427" stroke="silver" width="37.5" x="418.75" y="197.94929329848" />
	<rect fill="aliceblue" height="3.2825186795901" stroke="aliceblue" width="37.5" x="418.75" y="194.66677461889" />
	<rect fill="black" height="1.78352494852992" stroke="black" width="37.5" x="418.75" y="192.88324967036" />
	<rect fill="aliceblue" height="1.06178722616762" stroke="aliceblue" width="37.5" x="418.75" y="191.821462444193" />
	<rect fill="antiquewhite" height="1.58227116056351" stroke="antiquewhite" width="37.5" x="418.75" y="190.239191283629" />
	<rect fill="aqua" height="0.117976358463069" stroke="aqua" width="37.5" x="418.75" y="190.121214925166" />
	<rect fill="aquamarine" height="0.15961507321474" stroke="aquamarine" width="37.5" x="418.75" y="189.961599851951" />
	<rect fill="azure" height="1.03402808299984" stroke="azure" width="37.5" x="418.75" y="188.927571768951" />
	<rect fill="beige" height="138.9275717691" stroke="beige" width="37.5" x="418.75" y="49.9999999998514" />
	<line stroke="black" stroke-width="2" x1="550" x2="550" y1="350" y2="352.7" />
	<g fill="black" font-family="Arial" font-size="13.5" stroke="none" text-anchor="end" transform="rotate(-45,512.5,359)">
		<text x="512.5" y="363.5">A54</text>
	</g>
	<rect fill="crimson" height="30.4656596266395" stroke="crimson" width="37.5" x="493.75" y="319.534340373361" />
	<rect fill="blue" height="50.3828448495222" stroke="blue" width="37.5" x="493.75" y="269.151495523838" />
	<rect fill="lightseagreen" height="45.6568507252077" stroke="lightseagreen" width="37.5" x="493.75" y="223.494644798631" />
	<rect fill="orange" height="3.87934025769738" stroke="orange" width="37.5" x="493.75" y="219.615304540933" />
	<rect fill="mediumpurple" height="11.776816488931" stroke="mediumpurple" width="37.5" x="493.75" y="207.838488052002" />
	<rect fill="palegreen" height="6.59973628813992" stroke="palegreen" width="37.5" x="493.75" y="201.238751763862" />
	<rect fill="lightcoral" height="0.14573550163085" stroke="lightcoral" width="37.5" x="493.75" y="201.093016262231" />
	<rect fill="dodgerblue" height="0.277591431677809" stroke="dodgerblue" width="37.5" x="493.75" y="200.815424830554" />
	<rect fill="lawngreen" height="0.791135580281754" stroke="lawngreen" width="37.5" x="493.75" y="200.024289250272" />
	<rect fill="olive" height="10.888523907562" stroke="olive" width="37.5" x="493.75" y="189.13576534271" />
	<rect fill="yellow" height="3.039626176872" stroke="yellow" width="37.5" x="493.75" y="186.096139165838" />
	<rect fill="fuchsia" height="7.46720951213307" stroke="fuchsia" width="37.5" x="493.75" y="178.628929653705" />
	<rect fill="salmon" height="2.06111638020773" stroke="salmon" width="37.5" x="493.75" y="176.567813273497" />
	<rect fill="mediumslateblue" height="8.9176247426496" stroke="mediumslateblue" width="37.5" x="493.75" y="167.650188530847" />
	<rect fill="darkviolet" height="7.16879872307943" stroke="darkviolet" width="37.5" x="493.75" y="160.481389807768" />
	<rect fill="purple" height="7.14797936570358" stroke="purple" width="37.5" x="493.75" y="153.333410442064" />
	<rect fill="sienna" height="2.1790927386708" stroke="sienna" width="37.5" x="493.75" y="151.154317703394" />
	<rect fill="tan" height="4.91336834069721" stroke="tan" width="37.5" x="493.75" y="146.240949362696" />
	<rect fill="chocolate" height="0.111036572671124" stroke="chocolate" width="37.5" x="493.75" y="146.129912790025" />
	<rect fill="skyblue" height="5.04522427074417" stroke="skyblue" width="37.5" x="493.75" y="141.084688519281" />
	<rect fill="turquoise" height="0.333109718013372" stroke="turquoise" width="37.5" x="493.75" y="140.751578801268" />
	<rect fill="cadetblue" height="3.74748432765042" stroke="cadetblue" width="37.5" x="493.75" y="137.004094473617" />
	<rect fill="silver" height="0.888292581368988" stroke="silver" width="37.5" x="493.75" y="136.115801892248" />
	<rect fill="aliceblue" height="0.43720650489255" stroke="aliceblue" width="37.5" x="493.75" y="135.678595387356" />
	<rect fill="black" height="0.187374216382521" stroke="black" width="37.5" x="493.75" y="135.491221170973" />
	<rect fill="aliceblue" height="2.65793795831502" stroke="aliceblue" width="37.5" x="493.75" y="132.833283212658" />
	<rect fill="antiquewhite" height="2.6093594577714" stroke="antiquewhite" width="37.5" x="493.75" y="130.223923754887" />
	<rect fill="aqua" height="2.51220245668417" stroke="aqua" width="37.5" x="493.75" y="127.711721298203" />
	<rect fill="aquamarine" height="2.4705637419325" stroke="aquamarine" width="37.5" x="493.75" y="125.24115755627" />
	<rect fill="azure" height="0.444146290684494" stroke="azure" width="37.5" x="493.75" y="124.797011265586" />
	<rect fill="beige" height="74.7970112655" stroke="beige" width="37.5" x="493.75" y="50.0000000000857" />
	<line stroke="black" stroke-width="2" x1="100" x2="550" y1="350" y2="350" />
	<line stroke="black" stroke-width="2" x1="100" x2="100" y1="50" y2="352.7" />
	<rect fill="beige" height="7" stroke="beige" width="7" x="562" y="37" />
	<text fill="black" font-family="Arial" font-size="10" stroke="none" x="572.5" y="44">Others</text>
	<rect fill="azure" height="7" stroke="azure" width="7" x="562" y="49" />
	<text fill="black" font-family="Arial" font-size="10" stroke="none" x="572.5" y="56">Candidatus_Caldatribacterium</text>
	<rect fill="aquamarine" height="7" stroke="aquamarine" width="7" x="562" y="61" />
	<text fill="black" font-family="Arial" font-size="10" stroke="none" x="572.5" y="68">Leucobacter</text>
	<rect fill="aqua" height="7" stroke="aqua" width="7" x="562" y="73" />
	<text fill="black" font-family="Arial" font-size="10" stroke="none" x="572.5" y="80">Streptomyces</text>
	<rect fill="antiquewhite" height="7" stroke="antiquewhite" width="7" x="562" y="85" />
	<text fill="black" font-family="Arial" font-size="10" stroke="none" x="572.5" y="92">Microbacterium</text>
	<rect fill="aliceblue" height="7" stroke="aliceblue" width="7" x="562" y="97" />
	<text fill="black" font-family="Arial" font-size="10" stroke="none" x="572.5" y="104">Paracoccus</text>
	<rect fill="black" height="7" stroke="black" width="7" x="562" y="109" />
	<text fill="black" font-family="Arial" font-size="10" stroke="none" x="572.5" y="116">Methanolinea</text>
	<rect fill="aliceblue" height="7" stroke="aliceblue" width="7" x="562" y="121" />
	<text fill="black" font-family="Arial" font-size="10" stroke="none" x="572.5" y="128">DMER64</text>
	<rect fill="silver" height="7" stroke="silver" width="7" x="562" y="133" />
	<text fill="black" font-family="Arial" font-size="10" stroke="none" x="572.5" y="140">Amaricoccus</text>
	<rect fill="cadetblue" height="7" stroke="cadetblue" width="7" x="562" y="145" />
	<text fill="black" font-family="Arial" font-size="10" stroke="none" x="572.5" y="152">Psychrobacillus</text>
	<rect fill="turquoise" height="7" stroke="turquoise" width="7" x="562" y="157" />
	<text fill="black" font-family="Arial" font-size="10" stroke="none" x="572.5" y="164">Thermovirga</text>
	<rect fill="skyblue" height="7" stroke="skyblue" width="7" x="562" y="169" />
	<text fill="black" font-family="Arial" font-size="10" stroke="none" x="572.5" y="176">Planococcus</text>
	<rect fill="chocolate" height="7" stroke="chocolate" width="7" x="562" y="181" />
	<text fill="black" font-family="Arial" font-size="10" stroke="none" x="572.5" y="188">unidentified_Anaerolineaceae</text>
	<rect fill="tan" height="7" stroke="tan" width="7" x="562" y="193" />
	<text fill="black" font-family="Arial" font-size="10" stroke="none" x="572.5" y="200">Gordonia</text>
	<rect fill="sienna" height="7" stroke="sienna" width="7" x="562" y="205" />
	<text fill="black" font-family="Arial" font-size="10" stroke="none" x="572.5" y="212">Clostridium_sensu_stricto_1</text>
	<rect fill="purple" height="7" stroke="purple" width="7" x="562" y="217" />
	<text fill="black" font-family="Arial" font-size="10" stroke="none" x="572.5" y="224">Sporosarcina</text>
	<rect fill="darkviolet" height="7" stroke="darkviolet" width="7" x="562" y="229" />
	<text fill="black" font-family="Arial" font-size="10" stroke="none" x="572.5" y="236">Chryseomicrobium</text>
	<rect fill="mediumslateblue" height="7" stroke="mediumslateblue" width="7" x="562" y="241" />
	<text fill="black" font-family="Arial" font-size="10" stroke="none" x="572.5" y="248">Sphingobacterium</text>
	<rect fill="salmon" height="7" stroke="salmon" width="7" x="562" y="253" />
	<text fill="black" font-family="Arial" font-size="10" stroke="none" x="572.5" y="260">Comamonas</text>
	<rect fill="fuchsia" height="7" stroke="fuchsia" width="7" x="562" y="265" />
	<text fill="black" font-family="Arial" font-size="10" stroke="none" x="572.5" y="272">Mycobacterium</text>
	<rect fill="yellow" height="7" stroke="yellow" width="7" x="562" y="277" />
	<text fill="black" font-family="Arial" font-size="10" stroke="none" x="572.5" y="284">Romboutsia</text>
	<rect fill="olive" height="7" stroke="olive" width="7" x="562" y="289" />
	<text fill="black" font-family="Arial" font-size="10" stroke="none" x="572.5" y="296">Lysinibacillus</text>
	<rect fill="lawngreen" height="7" stroke="lawngreen" width="7" x="562" y="301" />
	<text fill="black" font-family="Arial" font-size="10" stroke="none" x="572.5" y="308">Christensenellaceae_R-7_group</text>
	<rect fill="dodgerblue" height="7" stroke="dodgerblue" width="7" x="562" y="313" />
	<text fill="black" font-family="Arial" font-size="10" stroke="none" x="572.5" y="320">Sedimentibacter</text>
	<rect fill="lightcoral" height="7" stroke="lightcoral" width="7" x="562" y="325" />
	<text fill="black" font-family="Arial" font-size="10" stroke="none" x="572.5" y="332">Fastidiosipila</text>
	<rect fill="palegreen" height="7" stroke="palegreen" width="7" x="562" y="337" />
	<text fill="black" font-family="Arial" font-size="10" stroke="none" x="572.5" y="344">Stenotrophomonas</text>
	<rect fill="mediumpurple" height="7" stroke="mediumpurple" width="7" x="562" y="349" />
	<text fill="black" font-family="Arial" font-size="10" stroke="none" x="572.5" y="356">Acinetobacter</text>
	<rect fill="orange" height="7" stroke="orange" width="7" x="562" y="361" />
	<text fill="black" font-family="Arial" font-size="10" stroke="none" x="572.5" y="368">Candidatus_Microthrix</text>
	<rect fill="lightseagreen" height="7" stroke="lightseagreen" width="7" x="562" y="373" />
	<text fill="black" font-family="Arial" font-size="10" stroke="none" x="572.5" y="380">Psychrobacter</text>
	<rect fill="blue" height="7" stroke="blue" width="7" x="562" y="385" />
	<text fill="black" font-family="Arial" font-size="10" stroke="none" x="572.5" y="392">Glutamicibacter</text>
	<rect fill="crimson" height="7" stroke="crimson" width="7" x="562" y="397" />
	<text fill="black" font-family="Arial" font-size="10" stroke="none" x="572.5" y="404">Methanosaeta</text>
	<!-- 
	Generated using the Perl SVG Module V2.50
	by Ronan Oger
	Info: http://www.roitsystems.com/
 -->
</svg>