<?xml version="1.0" encoding="UTF-8" standalone="yes"?>
<!DOCTYPE svg PUBLIC "-//W3C//DTD SVG 1.0//EN" "http://www.w3.org/TR/2001/REC-SVG-20010904/DTD/svg10.dtd">
<svg height="377" style="background-color: #ffffff;" width="834" xmlns="http://www.w3.org/2000/svg" xmlns:svg="http://www.w3.org/2000/svg" xmlns:xlink="http://www.w3.org/1999/xlink">
	<path d="M 40 93.44 L 40 53.07 A 8.07 8.07 0 0 1 48.07,45 L 240 45" style="fill: none; stroke: rgb(0,0,255); stroke-width: 1.5" />
	<text fill="rgb(0,0,255)" font-family="Arial" font-size="15" stroke="none" text-anchor="start" x="247.5" y="50">A54</text>
	<path d="M 40 93.44 L 40 135.25 A 6.63 6.63 0 0 0 46.63,141.88 L 79.77 141.88" style="fill: none; stroke: rgb(132,12,138); stroke-width: 1.5" />
	<path d="M 79.77 141.88 L 79.77 102.81 A 7.81 7.81 0 0 1 87.58,95 L 240 95" style="fill: none; stroke: rgb(0,0,255); stroke-width: 1.5" />
	<text fill="rgb(0,0,255)" font-family="Arial" font-size="15" stroke="none" text-anchor="start" x="247.5" y="100">A52</text>
	<path d="M 79.77 141.88 L 79.77 185.61 A 3.14 3.14 0 0 0 82.91,188.75 L 98.62 188.75" style="fill: none; stroke: rgb(165,15,109); stroke-width: 1.5" />
	<path d="M 98.62 188.75 L 98.62 152.29 A 7.29 7.29 0 0 1 105.91,145 L 239.99 145" style="fill: none; stroke: rgb(0,0,255); stroke-width: 1.5" />
	<text fill="rgb(0,0,255)" font-family="Arial" font-size="15" stroke="none" text-anchor="start" x="247.49" y="150">A53</text>
	<path d="M 98.62 188.75 L 98.62 228.45 A 4.05 4.05 0 0 0 102.67,232.5 L 122.89 232.5" style="fill: none; stroke: rgb(220,20,60); stroke-width: 1.5" />
	<path d="M 122.89 232.5 L 122.89 201.25 A 6.25 6.25 0 0 1 129.14,195 L 239.99 195" style="fill: none; stroke: rgb(220,20,60); stroke-width: 1.5" />
	<text fill="rgb(220,20,60)" font-family="Arial" font-size="15" stroke="none" text-anchor="start" x="247.49" y="200">A6</text>
	<path d="M 122.89 232.5 L 122.89 269.23 A 0.77 0.77 0 0 0 123.66,270 L 127.5 270" style="fill: none; stroke: rgb(220,20,60); stroke-width: 1.5" />
	<path d="M 127.5 270 L 127.5 249.17 A 4.17 4.17 0 0 1 131.67,245 L 239.99 245" style="fill: none; stroke: rgb(220,20,60); stroke-width: 1.5" />
	<text fill="rgb(220,20,60)" font-family="Arial" font-size="15" stroke="none" text-anchor="start" x="247.49" y="250">A4</text>
	<path d="M 127.5 270 L 127.5 290.83 A 4.17 4.17 0 0 0 131.67,295 L 239.99 295" style="fill: none; stroke: rgb(220,20,60); stroke-width: 1.5" />
	<text fill="rgb(220,20,60)" font-family="Arial" font-size="15" stroke="none" text-anchor="start" x="247.49" y="300">A5</text>
	<text fill="black" font-family="Arial" font-size="11.1111111111111" stroke="none" text-anchor="start" x="40" y="340">Unweighted Unifrac Distance</text>
	<line stroke="black" stroke-width="1.5" x1="40" x2="240" y1="355" y2="355" />
	<line stroke="black" stroke-width="1.5" x1="40" x2="40" y1="355" y2="347.5" />
	<text fill="black" font-family="Arial" font-size="15" stroke="none" text-anchor="middle" x="40" y="370">0</text>
	<line stroke="black" stroke-width="1.5" x1="46.5799874440019" x2="46.5799874440019" y1="355" y2="351.25" />
	<line stroke="black" stroke-width="1.5" x1="53.1599748880038" x2="53.1599748880038" y1="355" y2="351.25" />
	<line stroke="black" stroke-width="1.5" x1="59.7399623320057" x2="59.7399623320057" y1="355" y2="351.25" />
	<line stroke="black" stroke-width="1.5" x1="66.3199497760077" x2="66.3199497760077" y1="355" y2="351.25" />
	<line stroke="black" stroke-width="1.5" x1="72.8999372200096" x2="72.8999372200096" y1="355" y2="347.5" />
	<line stroke="black" stroke-width="1.5" x1="79.4799246640115" x2="79.4799246640115" y1="355" y2="351.25" />
	<line stroke="black" stroke-width="1.5" x1="86.0599121080134" x2="86.0599121080134" y1="355" y2="351.25" />
	<line stroke="black" stroke-width="1.5" x1="92.6398995520153" x2="92.6398995520153" y1="355" y2="351.25" />
	<line stroke="black" stroke-width="1.5" x1="99.2198869960172" x2="99.2198869960172" y1="355" y2="351.25" />
	<line stroke="black" stroke-width="1.5" x1="105.799874440019" x2="105.799874440019" y1="355" y2="347.5" />
	<text fill="black" font-family="Arial" font-size="15" stroke="none" text-anchor="middle" x="105.799874440019" y="370">0.1</text>
	<line stroke="black" stroke-width="1.5" x1="112.379861884021" x2="112.379861884021" y1="355" y2="351.25" />
	<line stroke="black" stroke-width="1.5" x1="118.959849328023" x2="118.959849328023" y1="355" y2="351.25" />
	<line stroke="black" stroke-width="1.5" x1="125.539836772025" x2="125.539836772025" y1="355" y2="351.25" />
	<line stroke="black" stroke-width="1.5" x1="132.119824216027" x2="132.119824216027" y1="355" y2="351.25" />
	<line stroke="black" stroke-width="1.5" x1="138.699811660029" x2="138.699811660029" y1="355" y2="347.5" />
	<line stroke="black" stroke-width="1.5" x1="145.279799104031" x2="145.279799104031" y1="355" y2="351.25" />
	<line stroke="black" stroke-width="1.5" x1="151.859786548033" x2="151.859786548033" y1="355" y2="351.25" />
	<line stroke="black" stroke-width="1.5" x1="158.439773992034" x2="158.439773992034" y1="355" y2="351.25" />
	<line stroke="black" stroke-width="1.5" x1="165.019761436036" x2="165.019761436036" y1="355" y2="351.25" />
	<line stroke="black" stroke-width="1.5" x1="171.599748880038" x2="171.599748880038" y1="355" y2="347.5" />
	<text fill="black" font-family="Arial" font-size="15" stroke="none" text-anchor="middle" x="171.599748880038" y="370">0.2</text>
	<line stroke="black" stroke-width="1.5" x1="178.17973632404" x2="178.17973632404" y1="355" y2="351.25" />
	<line stroke="black" stroke-width="1.5" x1="184.759723768042" x2="184.759723768042" y1="355" y2="351.25" />
	<line stroke="black" stroke-width="1.5" x1="191.339711212044" x2="191.339711212044" y1="355" y2="351.25" />
	<line stroke="black" stroke-width="1.5" x1="197.919698656046" x2="197.919698656046" y1="355" y2="351.25" />
	<line stroke="black" stroke-width="1.5" x1="204.499686100048" x2="204.499686100048" y1="355" y2="347.5" />
	<line stroke="black" stroke-width="1.5" x1="211.07967354405" x2="211.07967354405" y1="355" y2="351.25" />
	<line stroke="black" stroke-width="1.5" x1="217.659660988052" x2="217.659660988052" y1="355" y2="351.25" />
	<line stroke="black" stroke-width="1.5" x1="224.239648432054" x2="224.239648432054" y1="355" y2="351.25" />
	<line stroke="black" stroke-width="1.5" x1="230.819635876056" x2="230.819635876056" y1="355" y2="351.25" />
	<line stroke="black" stroke-width="1.5" x1="237.399623320057" x2="237.399623320057" y1="355" y2="347.5" />
	<text fill="black" font-family="Arial" font-size="15" stroke="none" text-anchor="middle" x="237.399623320057" y="370">0.3</text>
	<rect fill="crimson" height="40" stroke="black" width="127.51" x="294" y="25" />
	<rect fill="blue" height="40" stroke="black" width="82.2" x="421.51" y="25" />
	<rect fill="lightseagreen" height="40" stroke="black" width="91.91" x="503.71" y="25" />
	<rect fill="orange" height="40" stroke="black" width="18.12" x="595.62" y="25" />
	<rect fill="mediumpurple" height="40" stroke="black" width="42.72" x="613.74" y="25" />
	<rect fill="palegreen" height="40" stroke="black" width="5.83" x="656.46" y="25" />
	<rect fill="lightcoral" height="40" stroke="black" width="2.59" x="662.29" y="25" />
	<rect fill="dodgerblue" height="40" stroke="black" width="1.94" x="664.88" y="25" />
	<rect fill="lawngreen" height="40" stroke="black" width="5.18" x="666.82" y="25" />
	<rect fill="olive" height="40" stroke="black" width="1.94" x="672" y="25" />
	<rect fill="yellow" height="40" stroke="black" width="20.06" x="673.94" y="25" />
	<rect fill="crimson" height="40" stroke="black" width="94.51" x="294" y="75" />
	<line stroke="black" stroke-width="1" x1="421.51" x2="388.51" y1="65" y2="75" />
	<rect fill="blue" height="40" stroke="black" width="91.95" x="388.51" y="75" />
	<line stroke="black" stroke-width="1" x1="503.71" x2="480.46" y1="65" y2="75" />
	<rect fill="lightseagreen" height="40" stroke="black" width="73.05" x="480.46" y="75" />
	<line stroke="black" stroke-width="1" x1="595.62" x2="553.51" y1="65" y2="75" />
	<rect fill="orange" height="40" stroke="black" width="44.96" x="553.51" y="75" />
	<line stroke="black" stroke-width="1" x1="613.74" x2="598.47" y1="65" y2="75" />
	<rect fill="mediumpurple" height="40" stroke="black" width="25.54" x="598.47" y="75" />
	<line stroke="black" stroke-width="1" x1="656.46" x2="624.01" y1="65" y2="75" />
	<rect fill="palegreen" height="40" stroke="black" width="14.81" x="624.01" y="75" />
	<line stroke="black" stroke-width="1" x1="662.29" x2="638.82" y1="65" y2="75" />
	<rect fill="lightcoral" height="40" stroke="black" width="9.2" x="638.82" y="75" />
	<line stroke="black" stroke-width="1" x1="664.88" x2="648.02" y1="65" y2="75" />
	<rect fill="dodgerblue" height="40" stroke="black" width="4.6" x="648.02" y="75" />
	<line stroke="black" stroke-width="1" x1="666.82" x2="652.62" y1="65" y2="75" />
	<rect fill="lawngreen" height="40" stroke="black" width="6.64" x="652.62" y="75" />
	<line stroke="black" stroke-width="1" x1="672" x2="659.26" y1="65" y2="75" />
	<rect fill="olive" height="40" stroke="black" width="3.58" x="659.26" y="75" />
	<line stroke="black" stroke-width="1" x1="673.94" x2="662.84" y1="65" y2="75" />
	<rect fill="yellow" height="40" stroke="black" width="31.16" x="662.84" y="75" />
	<line stroke="black" stroke-width="1" x1="694" x2="694" y1="65" y2="75" />
	<rect fill="crimson" height="40" stroke="black" width="110.41" x="294" y="125" />
	<line stroke="black" stroke-width="1" x1="388.51" x2="404.41" y1="115" y2="125" />
	<rect fill="blue" height="40" stroke="black" width="77.19" x="404.41" y="125" />
	<line stroke="black" stroke-width="1" x1="480.46" x2="481.6" y1="115" y2="125" />
	<rect fill="lightseagreen" height="40" stroke="black" width="72.51" x="481.6" y="125" />
	<line stroke="black" stroke-width="1" x1="553.51" x2="554.11" y1="115" y2="125" />
	<rect fill="orange" height="40" stroke="black" width="32.28" x="554.11" y="125" />
	<line stroke="black" stroke-width="1" x1="598.47" x2="586.39" y1="115" y2="125" />
	<rect fill="mediumpurple" height="40" stroke="black" width="33.22" x="586.39" y="125" />
	<line stroke="black" stroke-width="1" x1="624.01" x2="619.61" y1="115" y2="125" />
	<rect fill="palegreen" height="40" stroke="black" width="13.57" x="619.61" y="125" />
	<line stroke="black" stroke-width="1" x1="638.82" x2="633.18" y1="115" y2="125" />
	<rect fill="lightcoral" height="40" stroke="black" width="7.95" x="633.18" y="125" />
	<line stroke="black" stroke-width="1" x1="648.02" x2="641.13" y1="115" y2="125" />
	<rect fill="dodgerblue" height="40" stroke="black" width="8.89" x="641.13" y="125" />
	<line stroke="black" stroke-width="1" x1="652.62" x2="650.02" y1="115" y2="125" />
	<rect fill="lawngreen" height="40" stroke="black" width="7.49" x="650.02" y="125" />
	<line stroke="black" stroke-width="1" x1="659.26" x2="657.51" y1="115" y2="125" />
	<rect fill="olive" height="40" stroke="black" width="6.08" x="657.51" y="125" />
	<line stroke="black" stroke-width="1" x1="662.84" x2="663.59" y1="115" y2="125" />
	<rect fill="yellow" height="40" stroke="black" width="30.41" x="663.59" y="125" />
	<line stroke="black" stroke-width="1" x1="694" x2="694" y1="115" y2="125" />
	<rect fill="crimson" height="40" stroke="black" width="106.86" x="294" y="175" />
	<line stroke="black" stroke-width="1" x1="404.41" x2="400.86" y1="165" y2="175" />
	<rect fill="blue" height="40" stroke="black" width="85.11" x="400.86" y="175" />
	<line stroke="black" stroke-width="1" x1="481.6" x2="485.97" y1="165" y2="175" />
	<rect fill="lightseagreen" height="40" stroke="black" width="69.5" x="485.97" y="175" />
	<line stroke="black" stroke-width="1" x1="554.11" x2="555.47" y1="165" y2="175" />
	<rect fill="orange" height="40" stroke="black" width="28.37" x="555.47" y="175" />
	<line stroke="black" stroke-width="1" x1="586.39" x2="583.84" y1="165" y2="175" />
	<rect fill="mediumpurple" height="40" stroke="black" width="34.04" x="583.84" y="175" />
	<line stroke="black" stroke-width="1" x1="619.61" x2="617.88" y1="165" y2="175" />
	<rect fill="palegreen" height="40" stroke="black" width="17.02" x="617.88" y="175" />
	<line stroke="black" stroke-width="1" x1="633.18" x2="634.9" y1="165" y2="175" />
	<rect fill="lightcoral" height="40" stroke="black" width="8.51" x="634.9" y="175" />
	<line stroke="black" stroke-width="1" x1="641.13" x2="643.41" y1="165" y2="175" />
	<rect fill="dodgerblue" height="40" stroke="black" width="8.04" x="643.41" y="175" />
	<line stroke="black" stroke-width="1" x1="650.02" x2="651.45" y1="165" y2="175" />
	<rect fill="lawngreen" height="40" stroke="black" width="7.09" x="651.45" y="175" />
	<line stroke="black" stroke-width="1" x1="657.51" x2="658.54" y1="165" y2="175" />
	<rect fill="olive" height="40" stroke="black" width="5.67" x="658.54" y="175" />
	<line stroke="black" stroke-width="1" x1="663.59" x2="664.21" y1="165" y2="175" />
	<rect fill="yellow" height="40" stroke="black" width="29.79" x="664.21" y="175" />
	<line stroke="black" stroke-width="1" x1="694" x2="694" y1="165" y2="175" />
	<rect fill="crimson" height="40" stroke="black" width="109.86" x="294" y="225" />
	<line stroke="black" stroke-width="1" x1="400.86" x2="403.86" y1="215" y2="225" />
	<rect fill="blue" height="40" stroke="black" width="82.4" x="403.86" y="225" />
	<line stroke="black" stroke-width="1" x1="485.97" x2="486.26" y1="215" y2="225" />
	<rect fill="lightseagreen" height="40" stroke="black" width="67.42" x="486.26" y="225" />
	<line stroke="black" stroke-width="1" x1="555.47" x2="553.68" y1="215" y2="225" />
	<rect fill="orange" height="40" stroke="black" width="30.96" x="553.68" y="225" />
	<line stroke="black" stroke-width="1" x1="583.84" x2="584.64" y1="215" y2="225" />
	<rect fill="mediumpurple" height="40" stroke="black" width="32.96" x="584.64" y="225" />
	<line stroke="black" stroke-width="1" x1="617.88" x2="617.6" y1="215" y2="225" />
	<rect fill="palegreen" height="40" stroke="black" width="14.98" x="617.6" y="225" />
	<line stroke="black" stroke-width="1" x1="634.9" x2="632.58" y1="215" y2="225" />
	<rect fill="lightcoral" height="40" stroke="black" width="7.99" x="632.58" y="225" />
	<line stroke="black" stroke-width="1" x1="643.41" x2="640.57" y1="215" y2="225" />
	<rect fill="dodgerblue" height="40" stroke="black" width="7.49" x="640.57" y="225" />
	<line stroke="black" stroke-width="1" x1="651.45" x2="648.06" y1="215" y2="225" />
	<rect fill="lawngreen" height="40" stroke="black" width="6.49" x="648.06" y="225" />
	<line stroke="black" stroke-width="1" x1="658.54" x2="654.55" y1="215" y2="225" />
	<rect fill="olive" height="40" stroke="black" width="5.49" x="654.55" y="225" />
	<line stroke="black" stroke-width="1" x1="664.21" x2="660.04" y1="215" y2="225" />
	<rect fill="yellow" height="40" stroke="black" width="33.96" x="660.04" y="225" />
	<line stroke="black" stroke-width="1" x1="694" x2="694" y1="215" y2="225" />
	<rect fill="crimson" height="40" stroke="black" width="119.95" x="294" y="275" />
	<line stroke="black" stroke-width="1" x1="403.86" x2="413.95" y1="265" y2="275" />
	<rect fill="blue" height="40" stroke="black" width="78.18" x="413.95" y="275" />
	<line stroke="black" stroke-width="1" x1="486.26" x2="492.13" y1="265" y2="275" />
	<rect fill="lightseagreen" height="40" stroke="black" width="73.9" x="492.13" y="275" />
	<line stroke="black" stroke-width="1" x1="553.68" x2="566.03" y1="265" y2="275" />
	<rect fill="orange" height="40" stroke="black" width="30.52" x="566.03" y="275" />
	<line stroke="black" stroke-width="1" x1="584.64" x2="596.55" y1="265" y2="275" />
	<rect fill="mediumpurple" height="40" stroke="black" width="34.27" x="596.55" y="275" />
	<line stroke="black" stroke-width="1" x1="617.6" x2="630.82" y1="265" y2="275" />
	<rect fill="palegreen" height="40" stroke="black" width="9.1" x="630.82" y="275" />
	<line stroke="black" stroke-width="1" x1="632.58" x2="639.92" y1="265" y2="275" />
	<rect fill="lightcoral" height="40" stroke="black" width="9.1" x="639.92" y="275" />
	<line stroke="black" stroke-width="1" x1="640.57" x2="649.02" y1="265" y2="275" />
	<rect fill="dodgerblue" height="40" stroke="black" width="6.96" x="649.02" y="275" />
	<line stroke="black" stroke-width="1" x1="648.06" x2="655.98" y1="265" y2="275" />
	<rect fill="lawngreen" height="40" stroke="black" width="6.96" x="655.98" y="275" />
	<line stroke="black" stroke-width="1" x1="654.55" x2="662.94" y1="265" y2="275" />
	<rect fill="olive" height="40" stroke="black" width="6.43" x="662.94" y="275" />
	<line stroke="black" stroke-width="1" x1="660.04" x2="669.37" y1="265" y2="275" />
	<rect fill="yellow" height="40" stroke="black" width="24.63" x="669.37" y="275" />
	<line stroke="black" stroke-width="1" x1="694" x2="694" y1="265" y2="275" />
	<line stroke="black" stroke-width="1" x1="294" x2="694" y1="325" y2="325" />
	<line stroke="black" stroke-width="1" x1="294" x2="294" y1="325" y2="332.5" />
	<text fill="black" font-family="Arial" font-size="15" stroke="none" text-anchor="middle" x="294" y="347.5">0</text>
	<line stroke="black" stroke-width="1" x1="394" x2="394" y1="325" y2="332.5" />
	<text fill="black" font-family="Arial" font-size="15" stroke="none" text-anchor="middle" x="394" y="347.5">0.25</text>
	<line stroke="black" stroke-width="1" x1="494" x2="494" y1="325" y2="332.5" />
	<text fill="black" font-family="Arial" font-size="15" stroke="none" text-anchor="middle" x="494" y="347.5">0.5</text>
	<line stroke="black" stroke-width="1" x1="594" x2="594" y1="325" y2="332.5" />
	<text fill="black" font-family="Arial" font-size="15" stroke="none" text-anchor="middle" x="594" y="347.5">0.75</text>
	<line stroke="black" stroke-width="1" x1="694" x2="694" y1="325" y2="332.5" />
	<text fill="black" font-family="Arial" font-size="15" stroke="none" text-anchor="middle" x="694" y="347.5">1</text>
	<text fill="black" font-family="Arial" font-size="15" stroke="none" text-anchor="middle" x="494" y="362.5">Relative Abundance in Phylum Level</text>
	<rect fill="crimson" height="11.1111111111111" stroke="black" width="11.1111111111111" x="705.111111111111" y="25" />
	<text fill="black" font-family="Arial" font-size="11.1111111111111" stroke="none" text-anchor="start" x="721.777777777778" y="34.4444444444444">Proteobacteria</text>
	<rect fill="blue" height="11.1111111111111" stroke="black" width="11.1111111111111" x="705.111111111111" y="41.6666666666667" />
	<text fill="black" font-family="Arial" font-size="11.1111111111111" stroke="none" text-anchor="start" x="721.777777777778" y="51.1111111111111">Firmicutes</text>
	<rect fill="lightseagreen" height="11.1111111111111" stroke="black" width="11.1111111111111" x="705.111111111111" y="58.3333333333333" />
	<text fill="black" font-family="Arial" font-size="11.1111111111111" stroke="none" text-anchor="start" x="721.777777777778" y="67.7777777777778">Actinobacteriota</text>
	<rect fill="orange" height="11.1111111111111" stroke="black" width="11.1111111111111" x="705.111111111111" y="75" />
	<text fill="black" font-family="Arial" font-size="11.1111111111111" stroke="none" text-anchor="start" x="721.777777777778" y="84.4444444444444">Chloroflexi</text>
	<rect fill="mediumpurple" height="11.1111111111111" stroke="black" width="11.1111111111111" x="705.111111111111" y="91.6666666666667" />
	<text fill="black" font-family="Arial" font-size="11.1111111111111" stroke="none" text-anchor="start" x="721.777777777778" y="101.111111111111">Bacteroidota</text>
	<rect fill="palegreen" height="11.1111111111111" stroke="black" width="11.1111111111111" x="705.111111111111" y="108.333333333333" />
	<text fill="black" font-family="Arial" font-size="11.1111111111111" stroke="none" text-anchor="start" x="721.777777777778" y="117.777777777778">Patescibacteria</text>
	<rect fill="lightcoral" height="11.1111111111111" stroke="black" width="11.1111111111111" x="705.111111111111" y="125" />
	<text fill="black" font-family="Arial" font-size="11.1111111111111" stroke="none" text-anchor="start" x="721.777777777778" y="134.444444444444">Synergistota</text>
	<rect fill="dodgerblue" height="11.1111111111111" stroke="black" width="11.1111111111111" x="705.111111111111" y="141.666666666667" />
	<text fill="black" font-family="Arial" font-size="11.1111111111111" stroke="none" text-anchor="start" x="721.777777777778" y="151.111111111111">Desulfobacterota</text>
	<rect fill="lawngreen" height="11.1111111111111" stroke="black" width="11.1111111111111" x="705.111111111111" y="158.333333333333" />
	<text fill="black" font-family="Arial" font-size="11.1111111111111" stroke="none" text-anchor="start" x="721.777777777778" y="167.777777777778">Halobacterota</text>
	<rect fill="olive" height="11.1111111111111" stroke="black" width="11.1111111111111" x="705.111111111111" y="175" />
	<text fill="black" font-family="Arial" font-size="11.1111111111111" stroke="none" text-anchor="start" x="721.777777777778" y="184.444444444444">Cloacimonadota</text>
	<rect fill="yellow" height="11.1111111111111" stroke="black" width="11.1111111111111" x="705.111111111111" y="191.666666666667" />
	<text fill="black" font-family="Arial" font-size="11.1111111111111" stroke="none" text-anchor="start" x="721.777777777778" y="201.111111111111">Others</text>
	<line stroke="crimson" x1="18.030303030303" x2="27.1212121212121" y1="23.030303030303" y2="23.030303030303" />
	<text fill="black" font-family="Arial" font-size="6.06060606060606" stroke="none" text-anchor="start" x="30.1515151515152" y="25.1515151515152">Day.1</text>
	<line stroke="blue" x1="18.030303030303" x2="27.1212121212121" y1="32.1212121212121" y2="32.1212121212121" />
	<text fill="black" font-family="Arial" font-size="6.06060606060606" stroke="none" text-anchor="start" x="30.1515151515152" y="34.2424242424242">Day.29</text>
	<!--
	Generated using the Perl SVG Module V2.84
	by Ronan Oger
	Info: http://www.roitsystems.com/
	-->
</svg>