<?xml version="1.0" encoding="UTF-8" standalone="yes"?>
<!DOCTYPE svg PUBLIC "-//W3C//DTD SVG 1.0//EN" "http://www.w3.org/TR/2001/REC-SVG-20010904/DTD/svg10.dtd">
<svg height="350" width="624" xmlns="http://www.w3.org/2000/svg" xmlns:svg="http://www.w3.org/2000/svg" xmlns:xlink="http://www.w3.org/1999/xlink">
	<line stroke="black" stroke-width="2" x1="65.5" x2="205.5" y1="260" y2="260" />
	<line stroke="black" stroke-width="1" x1="65.5" x2="65.5" y1="260" y2="255" />
	<line stroke="black" stroke-width="1" x1="205.5" x2="205.5" y1="260" y2="255" />
	<text font-family="Arial" font-size="10" text-anchor="middle" x="65.5" y="275">0</text>
	<text font-family="Arial" font-size="10" text-anchor="middle" x="205.5" y="275">0.003</text>
	<text font-family="Arial" font-size="15" text-anchor="middle" x="135.5" y="290">Means in groups</text>
	<rect fill="sandybrown" height="10" stroke="black" width="28" x="7" y="70" />
	<text font-family="Arial" font-size="10" text-anchor="start" x="40" y="80">Day.1</text>
	<rect fill="cornflowerblue" height="10" stroke="black" width="28" x="90" y="70" />
	<text font-family="Arial" font-size="10" text-anchor="start" x="123" y="80">Day.29</text>
	<line stroke="black" stroke-width="2" x1="265.5" x2="515.5" y1="260" y2="260" />
	<line stroke="black" stroke-width="1" x1="265.5" x2="265.5" y1="260" y2="255" />
	<text font-family="Arial" font-size="10" text-anchor="end" x="265.5" y="275">-0.00015</text>
	<line stroke="black" stroke-width="1" x1="328" x2="328" y1="260" y2="255" />
	<text font-family="Arial" font-size="10" text-anchor="end" x="328" y="275">0</text>
	<line stroke="black" stroke-width="1" x1="390.5" x2="390.5" y1="260" y2="255" />
	<text font-family="Arial" font-size="10" text-anchor="end" x="390.5" y="275">0.00015</text>
	<line stroke="black" stroke-width="1" x1="453" x2="453" y1="260" y2="255" />
	<text font-family="Arial" font-size="10" text-anchor="end" x="453" y="275">0.0003</text>
	<line stroke="black" stroke-width="1" x1="515.5" x2="515.5" y1="260" y2="255" />
	<text font-family="Arial" font-size="10" text-anchor="end" x="515.5" y="275">0.00045</text>
	<line stroke="black" stroke-dasharray="3 2" stroke-width="1" x1="328" x2="328" y1="250" y2="100" />
	<text font-family="Arial" font-size="15" text-anchor="middle" x="390.5" y="290">Difference between groups</text>
	<text font-family="Arial" font-size="10" text-anchor="middle" x="390.5" y="80">95% confidence intervals</text>
	<text font-family="Arial" font-size="10" text-anchor="end" x="60.5" y="130">PF12833</text>
	<text font-family="Arial" font-size="10" text-anchor="start" x="520.5" y="130">0.040</text>
	<rect fill-opacity="0.1" height="50" width="140" x="65.5" y="100" />
	<rect fill-opacity="0.1" height="50" width="250" x="265.5" y="100" />
	<text font-family="Arial" font-size="10" text-anchor="end" x="60.5" y="180">PF00664</text>
	<text font-family="Arial" font-size="10" text-anchor="start" x="520.5" y="180">0.048</text>
	<text font-family="Arial" font-size="10" text-anchor="end" x="60.5" y="230">PF02875</text>
	<text font-family="Arial" font-size="10" text-anchor="start" x="520.5" y="230">0.046</text>
	<rect fill-opacity="0.1" height="50" width="140" x="65.5" y="200" />
	<rect fill-opacity="0.1" height="50" width="250" x="265.5" y="200" />
	<rect fill="sandybrown" height="20" stroke="black" stroke-width="1" width="104.507484108057" x="65.5" y="105" />
	<rect fill="cornflowerblue" height="20" stroke="black" width="96.2679130842427" x="65.5" y="125" />
	<rect fill="sandybrown" height="20" stroke="black" stroke-width="1" width="99.4376683974053" x="65.5" y="155" />
	<rect fill="cornflowerblue" height="20" stroke="black" width="102.684074391915" x="65.5" y="175" />
	<rect fill="sandybrown" height="20" stroke="black" stroke-width="1" width="69.358381856085" x="65.5" y="205" />
	<rect fill="cornflowerblue" height="20" stroke="black" width="67.5104383028619" x="65.5" y="225" />
	<line stroke="black" stroke-width="1" x1="334.106000734185" x2="393.234265093583" y1="125" y2="125" />
	<circle cx="401.567598426917" cy="125" fill="sandybrown" r="8.33333333333333" stroke="black" />
	<line stroke="black" stroke-width="1" x1="409.90093176025" x2="469.029196119648" y1="125" y2="125" />
	<line stroke="black" stroke-width="1" x1="334.106000734185" x2="334.106000734185" y1="120.833333333333" y2="129.166666666667" />
	<line stroke="black" stroke-width="1" x1="469.029196119648" x2="469.029196119648" y1="120.833333333333" y2="129.166666666667" />
	<line stroke="black" stroke-width="1" x1="270.459600633328" x2="290.680898858542" y1="175" y2="175" />
	<circle cx="299.014232191875" cy="175" fill="cornflowerblue" r="8.33333333333333" stroke="black" />
	<line stroke="black" stroke-width="1" x1="307.347565525208" x2="327.568863750419" y1="175" y2="175" />
	<line stroke="black" stroke-width="1" x1="270.459600633328" x2="270.459600633328" y1="170.833333333333" y2="179.166666666667" />
	<line stroke="black" stroke-width="1" x1="327.568863750419" x2="327.568863750419" y1="170.833333333333" y2="179.166666666667" />
	<line stroke="black" stroke-width="1" x1="328.455270801605" x2="336.166162677588" y1="225" y2="225" />
	<circle cx="344.499496010921" cy="225" fill="sandybrown" r="8.33333333333333" stroke="black" />
	<line stroke="black" stroke-width="1" x1="352.832829344254" x2="360.543721220234" y1="225" y2="225" />
	<line stroke="black" stroke-width="1" x1="328.455270801605" x2="328.455270801605" y1="220.833333333333" y2="229.166666666667" />
	<line stroke="black" stroke-width="1" x1="360.543721220234" x2="360.543721220234" y1="220.833333333333" y2="229.166666666667" />
	<g transform="rotate(90,563,175)">
		<text font-family="Arial" font-size="10" text-anchor="middle" x="563" y="175">p_value</text>
	</g>
	<!-- 
	Generated using the Perl SVG Module V2.59
	by Ronan Oger
	Info: http://www.roitsystems.com/
 -->
</svg>