<?xml version="1.0" encoding="UTF-8" standalone="yes"?>
<!DOCTYPE svg PUBLIC "-//W3C//DTD SVG 1.0//EN" "http://www.w3.org/TR/2001/REC-SVG-20010904/DTD/svg10.dtd">
<svg height="500" width="648" xmlns="http://www.w3.org/2000/svg" xmlns:svg="http://www.w3.org/2000/svg" xmlns:xlink="http://www.w3.org/1999/xlink">
	<line stroke="black" stroke-width="2" x1="78.5" x2="218.5" y1="410" y2="410" />
	<line stroke="black" stroke-width="1" x1="78.5" x2="78.5" y1="410" y2="405" />
	<line stroke="black" stroke-width="1" x1="218.5" x2="218.5" y1="410" y2="405" />
	<text font-family="Arial" font-size="10" text-anchor="middle" x="78.5" y="425">0</text>
	<text font-family="Arial" font-size="10" text-anchor="middle" x="218.5" y="425">0.0015</text>
	<text font-family="Arial" font-size="15" text-anchor="middle" x="148.5" y="440">Means in groups</text>
	<rect fill="sandybrown" height="10" stroke="black" width="28" x="9" y="70" />
	<text font-family="Arial" font-size="10" text-anchor="start" x="42" y="80">Day.1</text>
	<rect fill="cornflowerblue" height="10" stroke="black" width="28" x="92" y="70" />
	<text font-family="Arial" font-size="10" text-anchor="start" x="125" y="80">Day.29</text>
	<line stroke="black" stroke-width="2" x1="278.5" x2="528.5" y1="410" y2="410" />
	<line stroke="black" stroke-width="1" x1="278.5" x2="278.5" y1="410" y2="405" />
	<text font-family="Arial" font-size="10" text-anchor="end" x="278.5" y="425">-0.00015</text>
	<line stroke="black" stroke-width="1" x1="328.5" x2="328.5" y1="410" y2="405" />
	<text font-family="Arial" font-size="10" text-anchor="end" x="328.5" y="425">0</text>
	<line stroke="black" stroke-width="1" x1="378.5" x2="378.5" y1="410" y2="405" />
	<text font-family="Arial" font-size="10" text-anchor="end" x="378.5" y="425">0.00015</text>
	<line stroke="black" stroke-width="1" x1="428.5" x2="428.5" y1="410" y2="405" />
	<text font-family="Arial" font-size="10" text-anchor="end" x="428.5" y="425">0.0003</text>
	<line stroke="black" stroke-width="1" x1="478.5" x2="478.5" y1="410" y2="405" />
	<text font-family="Arial" font-size="10" text-anchor="end" x="478.5" y="425">0.00045</text>
	<line stroke="black" stroke-width="1" x1="528.5" x2="528.5" y1="410" y2="405" />
	<text font-family="Arial" font-size="10" text-anchor="end" x="528.5" y="425">0.0006</text>
	<line stroke="black" stroke-dasharray="3 2" stroke-width="1" x1="328.5" x2="328.5" y1="400" y2="100" />
	<text font-family="Arial" font-size="15" text-anchor="middle" x="403.5" y="440">Difference between groups</text>
	<text font-family="Arial" font-size="10" text-anchor="middle" x="403.5" y="80">95% confidence intervals</text>
	<text font-family="Arial" font-size="10" text-anchor="end" x="73.5" y="130">TIGR00915</text>
	<text font-family="Arial" font-size="10" text-anchor="start" x="533.5" y="130">0.033</text>
	<rect fill-opacity="0.1" height="50" width="140" x="78.5" y="100" />
	<rect fill-opacity="0.1" height="50" width="250" x="278.5" y="100" />
	<text font-family="Arial" font-size="10" text-anchor="end" x="73.5" y="180">TIGR00974</text>
	<text font-family="Arial" font-size="10" text-anchor="start" x="533.5" y="180">0.001</text>
	<text font-family="Arial" font-size="10" text-anchor="end" x="73.5" y="230">TIGR00514</text>
	<text font-family="Arial" font-size="10" text-anchor="start" x="533.5" y="230">0.038</text>
	<rect fill-opacity="0.1" height="50" width="140" x="78.5" y="200" />
	<rect fill-opacity="0.1" height="50" width="250" x="278.5" y="200" />
	<text font-family="Arial" font-size="10" text-anchor="end" x="73.5" y="280">TIGR01059</text>
	<text font-family="Arial" font-size="10" text-anchor="start" x="533.5" y="280">0.044</text>
	<text font-family="Arial" font-size="10" text-anchor="end" x="73.5" y="330">TIGR00263</text>
	<text font-family="Arial" font-size="10" text-anchor="start" x="533.5" y="330">&lt;0.001</text>
	<rect fill-opacity="0.1" height="50" width="140" x="78.5" y="300" />
	<rect fill-opacity="0.1" height="50" width="250" x="278.5" y="300" />
	<text font-family="Arial" font-size="10" text-anchor="end" x="73.5" y="380">TIGR00757</text>
	<text font-family="Arial" font-size="10" text-anchor="start" x="533.5" y="380">0.004</text>
	<rect fill="sandybrown" height="20" stroke="black" stroke-width="1" width="121.214103602781" x="78.5" y="105" />
	<rect fill="cornflowerblue" height="20" stroke="black" width="96.7498371837592" x="78.5" y="125" />
	<rect fill="sandybrown" height="20" stroke="black" stroke-width="1" width="113.5333510595" x="78.5" y="155" />
	<rect fill="cornflowerblue" height="20" stroke="black" width="117.412399586989" x="78.5" y="175" />
	<rect fill="sandybrown" height="20" stroke="black" stroke-width="1" width="109.910304747818" x="78.5" y="205" />
	<rect fill="cornflowerblue" height="20" stroke="black" width="102.272976627173" x="78.5" y="225" />
	<rect fill="sandybrown" height="20" stroke="black" stroke-width="1" width="99.0038984694564" x="78.5" y="255" />
	<rect fill="cornflowerblue" height="20" stroke="black" width="100.894791949945" x="78.5" y="275" />
	<rect fill="sandybrown" height="20" stroke="black" stroke-width="1" width="97.5647235251836" x="78.5" y="305" />
	<rect fill="cornflowerblue" height="20" stroke="black" width="92.0797883660539" x="78.5" y="325" />
	<rect fill="sandybrown" height="20" stroke="black" stroke-width="1" width="96.4808468252515" x="78.5" y="355" />
	<rect fill="cornflowerblue" height="20" stroke="black" width="90.0145952822914" x="78.5" y="375" />
	<line stroke="black" stroke-width="1" x1="340.349764205778" x2="407.5390467346" y1="125" y2="125" />
	<circle cx="415.872380067933" cy="125" fill="sandybrown" r="8.33333333333333" stroke="black" />
	<line stroke="black" stroke-width="1" x1="424.205713401267" x2="491.394995930093" y1="125" y2="125" />
	<line stroke="black" stroke-width="1" x1="340.349764205778" x2="340.349764205778" y1="120.833333333333" y2="129.166666666667" />
	<line stroke="black" stroke-width="1" x1="491.394995930093" x2="491.394995930093" y1="120.833333333333" y2="129.166666666667" />
	<line stroke="black" stroke-width="1" x1="310.758266242821" x2="306.312921925637" y1="175" y2="175" />
	<circle cx="314.64625525897" cy="175" fill="cornflowerblue" r="8.33333333333333" stroke="black" />
	<line stroke="black" stroke-width="1" x1="322.979588592303" x2="318.534244275119" y1="175" y2="175" />
	<line stroke="black" stroke-width="1" x1="310.758266242821" x2="310.758266242821" y1="170.833333333333" y2="179.166666666667" />
	<line stroke="black" stroke-width="1" x1="318.534244275119" x2="318.534244275119" y1="170.833333333333" y2="179.166666666667" />
	<line stroke="black" stroke-width="1" x1="331.221842863319" x2="347.442838526113" y1="225" y2="225" />
	<circle cx="355.776171859447" cy="225" fill="sandybrown" r="8.33333333333333" stroke="black" />
	<line stroke="black" stroke-width="1" x1="364.10950519278" x2="380.33050085557" y1="225" y2="225" />
	<line stroke="black" stroke-width="1" x1="331.221842863319" x2="331.221842863319" y1="220.833333333333" y2="229.166666666667" />
	<line stroke="black" stroke-width="1" x1="380.33050085557" x2="380.33050085557" y1="220.833333333333" y2="229.166666666667" />
	<line stroke="black" stroke-width="1" x1="315.319452435382" x2="313.41347566492" y1="275" y2="275" />
	<circle cx="321.746808998253" cy="275" fill="cornflowerblue" r="8.33333333333333" stroke="black" />
	<line stroke="black" stroke-width="1" x1="330.080142331587" x2="328.174165561125" y1="275" y2="275" />
	<line stroke="black" stroke-width="1" x1="315.319452435382" x2="315.319452435382" y1="270.833333333333" y2="279.166666666667" />
	<line stroke="black" stroke-width="1" x1="328.174165561125" x2="328.174165561125" y1="270.833333333333" y2="279.166666666667" />
	<line stroke="black" stroke-width="1" x1="342.927547605151" x2="339.755720806416" y1="325" y2="325" />
	<circle cx="348.089054139749" cy="325" fill="sandybrown" r="8.33333333333333" stroke="black" />
	<line stroke="black" stroke-width="1" x1="356.422387473082" x2="353.250560674349" y1="325" y2="325" />
	<line stroke="black" stroke-width="1" x1="342.927547605151" x2="342.927547605151" y1="320.833333333333" y2="329.166666666667" />
	<line stroke="black" stroke-width="1" x1="353.250560674349" x2="353.250560674349" y1="320.833333333333" y2="329.166666666667" />
	<line stroke="black" stroke-width="1" x1="340.708290296639" x2="343.260422177238" y1="375" y2="375" />
	<circle cx="351.593755510572" cy="375" fill="sandybrown" r="8.33333333333333" stroke="black" />
	<line stroke="black" stroke-width="1" x1="359.927088843905" x2="362.479220724507" y1="375" y2="375" />
	<line stroke="black" stroke-width="1" x1="340.708290296639" x2="340.708290296639" y1="370.833333333333" y2="379.166666666667" />
	<line stroke="black" stroke-width="1" x1="362.479220724507" x2="362.479220724507" y1="370.833333333333" y2="379.166666666667" />
	<g transform="rotate(90,576,250)">
		<text font-family="Arial" font-size="10" text-anchor="middle" x="576" y="250">p_value</text>
	</g>
	<!-- 
	Generated using the Perl SVG Module V2.59
	by Ronan Oger
	Info: http://www.roitsystems.com/
 -->
</svg>