<?xml version="1.0" encoding="UTF-8" standalone="yes"?>
<!DOCTYPE svg PUBLIC "-//W3C//DTD SVG 1.0//EN" "http://www.w3.org/TR/2001/REC-SVG-20010904/DTD/svg10.dtd">
<svg height="450" width="676" xmlns="http://www.w3.org/2000/svg" xmlns:svg="http://www.w3.org/2000/svg" xmlns:xlink="http://www.w3.org/1999/xlink">
	<text fill="black" font-family="Arial" font-size="15" stroke="none" text-anchor="end" x="92.5" y="355">0</text>
	<line stroke="black" stroke-width="2" x1="100" x2="95" y1="350" y2="350" />
	<text fill="black" font-family="Arial" font-size="15" stroke="none" text-anchor="end" x="92.5" y="280">0.25</text>
	<line stroke="black" stroke-width="2" x1="100" x2="95" y1="275" y2="275" />
	<line stroke="black" stroke-dasharray="3 2" stroke-width="0.5" x1="100" x2="550" y1="275" y2="275" />
	<text fill="black" font-family="Arial" font-size="15" stroke="none" text-anchor="end" x="92.5" y="205">0.5</text>
	<line stroke="black" stroke-width="2" x1="100" x2="95" y1="200" y2="200" />
	<line stroke="black" stroke-dasharray="3 2" stroke-width="0.5" x1="100" x2="550" y1="200" y2="200" />
	<text fill="black" font-family="Arial" font-size="15" stroke="none" text-anchor="end" x="92.5" y="130">0.75</text>
	<line stroke="black" stroke-width="2" x1="100" x2="95" y1="125" y2="125" />
	<line stroke="black" stroke-dasharray="3 2" stroke-width="0.5" x1="100" x2="550" y1="125" y2="125" />
	<text fill="black" font-family="Arial" font-size="15" stroke="none" text-anchor="end" x="92.5" y="55">1</text>
	<line stroke="black" stroke-width="2" x1="100" x2="95" y1="50" y2="50" />
	<line stroke="black" stroke-width="1" x1="100" x2="100" y1="50" y2="350" />
	<text fill="black" font-family="Arial" font-size="15" stroke="none" text-anchor="middle" x="325" y="410.574363164907">group Name</text>
	<g transform="rotate(-90,47.5,200)">
		<text fill="black" font-family="Arial" font-size="15" stroke="none" text-anchor="middle" x="47.5" y="200">Relative Abundance</text>
	</g>
	<line stroke="black" stroke-width="2" x1="325" x2="325" y1="350" y2="352.7" />
	<g fill="black" font-family="Arial" font-size="13.5" stroke="none" text-anchor="end" transform="rotate(-45,212.5,359)">
		<text x="212.5" y="363.5">Day.1</text>
	</g>
	<rect fill="crimson" height="71.4867" stroke="crimson" width="112.5" x="156.25" y="278.5133" />
	<rect fill="blue" height="55.9347" stroke="blue" width="112.5" x="156.25" y="222.5786" />
	<rect fill="lightseagreen" height="55.125" stroke="lightseagreen" width="112.5" x="156.25" y="167.4536" />
	<rect fill="orange" height="51.0768" stroke="orange" width="112.5" x="156.25" y="116.3768" />
	<rect fill="mediumpurple" height="26.8107" stroke="mediumpurple" width="112.5" x="156.25" y="89.5661" />
	<rect fill="palegreen" height="18.7605" stroke="palegreen" width="112.5" x="156.25" y="70.8056" />
	<rect fill="lightcoral" height="4.0551" stroke="lightcoral" width="112.5" x="156.25" y="66.7505" />
	<rect fill="dodgerblue" height="4.6845" stroke="dodgerblue" width="112.5" x="156.25" y="62.066" />
	<rect fill="lawngreen" height="3.981" stroke="lawngreen" width="112.5" x="156.25" y="58.085" />
	<rect fill="olive" height="2.1375" stroke="olive" width="112.5" x="156.25" y="55.9475" />
	<rect fill="yellow" height="5.9475" stroke="yellow" width="112.5" x="156.25" y="50" />
	<line stroke="black" stroke-width="2" x1="550" x2="550" y1="350" y2="352.7" />
	<g fill="black" font-family="Arial" font-size="13.5" stroke="none" text-anchor="end" transform="rotate(-45,437.5,359)">
		<text x="437.5" y="363.5">Day.29</text>
	</g>
	<rect fill="crimson" height="89.079" stroke="crimson" width="112.5" x="381.25" y="260.921" />
	<rect fill="blue" height="51.9489" stroke="blue" width="112.5" x="381.25" y="208.9721" />
	<rect fill="lightseagreen" height="42.4761" stroke="lightseagreen" width="112.5" x="381.25" y="166.496" />
	<rect fill="orange" height="57.6303" stroke="orange" width="112.5" x="381.25" y="108.8657" />
	<rect fill="mediumpurple" height="24.6825" stroke="mediumpurple" width="112.5" x="381.25" y="84.1832" />
	<rect fill="palegreen" height="11.3997" stroke="palegreen" width="112.5" x="381.25" y="72.7835" />
	<rect fill="lightcoral" height="7.8606" stroke="lightcoral" width="112.5" x="381.25" y="64.9229" />
	<rect fill="dodgerblue" height="3.7404" stroke="dodgerblue" width="112.5" x="381.25" y="61.1825" />
	<rect fill="lawngreen" height="3.8376" stroke="lawngreen" width="112.5" x="381.25" y="57.3449" />
	<rect fill="olive" height="2.1675" stroke="olive" width="112.5" x="381.25" y="55.1774" />
	<rect fill="yellow" height="5.1774" stroke="yellow" width="112.5" x="381.25" y="50" />
	<line stroke="black" stroke-width="2" x1="100" x2="550" y1="350" y2="350" />
	<line stroke="black" stroke-width="2" x1="100" x2="100" y1="50" y2="352.7" />
	<rect fill="yellow" height="7" stroke="yellow" width="7" x="562" y="97" />
	<text fill="black" font-family="Arial" font-size="10" stroke="none" x="572.5" y="104">Others</text>
	<rect fill="olive" height="7" stroke="olive" width="7" x="562" y="109" />
	<text fill="black" font-family="Arial" font-size="10" stroke="none" x="572.5" y="116">Patescibacteria</text>
	<rect fill="lawngreen" height="7" stroke="lawngreen" width="7" x="562" y="121" />
	<text fill="black" font-family="Arial" font-size="10" stroke="none" x="572.5" y="128">Synergistota</text>
	<rect fill="dodgerblue" height="7" stroke="dodgerblue" width="7" x="562" y="133" />
	<text fill="black" font-family="Arial" font-size="10" stroke="none" x="572.5" y="140">Cloacimonadota</text>
	<rect fill="lightcoral" height="7" stroke="lightcoral" width="7" x="562" y="145" />
	<text fill="black" font-family="Arial" font-size="10" stroke="none" x="572.5" y="152">Chloroflexi</text>
	<rect fill="palegreen" height="7" stroke="palegreen" width="7" x="562" y="157" />
	<text fill="black" font-family="Arial" font-size="10" stroke="none" x="572.5" y="164">Acidobacteriota</text>
	<rect fill="mediumpurple" height="7" stroke="mediumpurple" width="7" x="562" y="169" />
	<text fill="black" font-family="Arial" font-size="10" stroke="none" x="572.5" y="176">Bacteroidota</text>
	<rect fill="orange" height="7" stroke="orange" width="7" x="562" y="181" />
	<text fill="black" font-family="Arial" font-size="10" stroke="none" x="572.5" y="188">Firmicutes</text>
	<rect fill="lightseagreen" height="7" stroke="lightseagreen" width="7" x="562" y="193" />
	<text fill="black" font-family="Arial" font-size="10" stroke="none" x="572.5" y="200">Halobacterota</text>
	<rect fill="blue" height="7" stroke="blue" width="7" x="562" y="205" />
	<text fill="black" font-family="Arial" font-size="10" stroke="none" x="572.5" y="212">Proteobacteria</text>
	<rect fill="crimson" height="7" stroke="crimson" width="7" x="562" y="217" />
	<text fill="black" font-family="Arial" font-size="10" stroke="none" x="572.5" y="224">Actinobacteriota</text>
	<!-- 
	Generated using the Perl SVG Module V2.50
	by Ronan Oger
	Info: http://www.roitsystems.com/
 -->
</svg>