<?xml version="1.0" encoding="UTF-8" standalone="yes"?>
<!DOCTYPE svg PUBLIC "-//W3C//DTD SVG 1.0//EN" "http://www.w3.org/TR/2001/REC-SVG-20010904/DTD/svg10.dtd">
<svg height="450" width="886" xmlns="http://www.w3.org/2000/svg" xmlns:svg="http://www.w3.org/2000/svg" xmlns:xlink="http://www.w3.org/1999/xlink">
	<text fill="black" font-family="Arial" font-size="15" stroke="none" text-anchor="end" x="92.5" y="355">0</text>
	<line stroke="black" stroke-width="2" x1="100" x2="95" y1="350" y2="350" />
	<text fill="black" font-family="Arial" font-size="15" stroke="none" text-anchor="end" x="92.5" y="280">0.25</text>
	<line stroke="black" stroke-width="2" x1="100" x2="95" y1="275" y2="275" />
	<line stroke="black" stroke-dasharray="3 2" stroke-width="0.5" x1="100" x2="550" y1="275" y2="275" />
	<text fill="black" font-family="Arial" font-size="15" stroke="none" text-anchor="end" x="92.5" y="205">0.5</text>
	<line stroke="black" stroke-width="2" x1="100" x2="95" y1="200" y2="200" />
	<line stroke="black" stroke-dasharray="3 2" stroke-width="0.5" x1="100" x2="550" y1="200" y2="200" />
	<text fill="black" font-family="Arial" font-size="15" stroke="none" text-anchor="end" x="92.5" y="130">0.75</text>
	<line stroke="black" stroke-width="2" x1="100" x2="95" y1="125" y2="125" />
	<line stroke="black" stroke-dasharray="3 2" stroke-width="0.5" x1="100" x2="550" y1="125" y2="125" />
	<text fill="black" font-family="Arial" font-size="15" stroke="none" text-anchor="end" x="92.5" y="55">1</text>
	<line stroke="black" stroke-width="2" x1="100" x2="95" y1="50" y2="50" />
	<line stroke="black" stroke-width="1" x1="100" x2="100" y1="50" y2="350" />
	<text fill="black" font-family="Arial" font-size="15" stroke="none" text-anchor="middle" x="325" y="410.574363164907">group Name</text>
	<g transform="rotate(-90,47.5,200)">
		<text fill="black" font-family="Arial" font-size="15" stroke="none" text-anchor="middle" x="47.5" y="200">Relative Abundance</text>
	</g>
	<line stroke="black" stroke-width="2" x1="325" x2="325" y1="350" y2="352.7" />
	<g fill="black" font-family="Arial" font-size="13.5" stroke="none" text-anchor="end" transform="rotate(-45,212.5,359)">
		<text x="212.5" y="363.5">Day.1</text>
	</g>
	<rect fill="crimson" height="0.1665" stroke="crimson" width="112.5" x="156.25" y="349.8335" />
	<rect fill="blue" height="2.0772" stroke="blue" width="112.5" x="156.25" y="347.7563" />
	<rect fill="lightseagreen" height="0.1041" stroke="lightseagreen" width="112.5" x="156.25" y="347.6522" />
	<rect fill="mediumpurple" height="1.071" stroke="mediumpurple" width="112.5" x="156.25" y="346.5812" />
	<rect fill="palegreen" height="0.0369" stroke="palegreen" width="112.5" x="156.25" y="346.5443" />
	<rect fill="lightcoral" height="0.7635" stroke="lightcoral" width="112.5" x="156.25" y="345.7808" />
	<rect fill="lawngreen" height="0.0879" stroke="lawngreen" width="112.5" x="156.25" y="345.6929" />
	<rect fill="yellow" height="295.6929" stroke="yellow" width="112.5" x="156.25" y="49.9999999999999" />
	<line stroke="black" stroke-width="2" x1="550" x2="550" y1="350" y2="352.7" />
	<g fill="black" font-family="Arial" font-size="13.5" stroke="none" text-anchor="end" transform="rotate(-45,437.5,359)">
		<text x="437.5" y="363.5">Day.29</text>
	</g>
	<rect fill="crimson" height="1.7766" stroke="crimson" width="112.5" x="381.25" y="348.2234" />
	<rect fill="blue" height="2.415" stroke="blue" width="112.5" x="381.25" y="345.8084" />
	<rect fill="lightseagreen" height="1.1427" stroke="lightseagreen" width="112.5" x="381.25" y="344.6657" />
	<rect fill="orange" height="0.8883" stroke="orange" width="112.5" x="381.25" y="343.7774" />
	<rect fill="mediumpurple" height="1.2885" stroke="mediumpurple" width="112.5" x="381.25" y="342.4889" />
	<rect fill="palegreen" height="0.4281" stroke="palegreen" width="112.5" x="381.25" y="342.0608" />
	<rect fill="lightcoral" height="0.2082" stroke="lightcoral" width="112.5" x="381.25" y="341.8526" />
	<rect fill="dodgerblue" height="0.3447" stroke="dodgerblue" width="112.5" x="381.25" y="341.5079" />
	<rect fill="lawngreen" height="0.3216" stroke="lawngreen" width="112.5" x="381.25" y="341.1863" />
	<rect fill="olive" height="0.3309" stroke="olive" width="112.5" x="381.25" y="340.8554" />
	<rect fill="yellow" height="290.8554" stroke="yellow" width="112.5" x="381.25" y="50.0000000000001" />
	<line stroke="black" stroke-width="2" x1="100" x2="550" y1="350" y2="350" />
	<line stroke="black" stroke-width="2" x1="100" x2="100" y1="50" y2="352.7" />
	<rect fill="yellow" height="7" stroke="yellow" width="7" x="562" y="97" />
	<text fill="black" font-family="Arial" font-size="10" stroke="none" x="572.5" y="104">Others</text>
	<rect fill="olive" height="7" stroke="olive" width="7" x="562" y="109" />
	<text fill="black" font-family="Arial" font-size="10" stroke="none" x="572.5" y="116">bacterium_CYCU-0215</text>
	<rect fill="lawngreen" height="7" stroke="lawngreen" width="7" x="562" y="121" />
	<text fill="black" font-family="Arial" font-size="10" stroke="none" x="572.5" y="128">toluene-degrading_methanogenic_consortium_bacterium</text>
	<rect fill="dodgerblue" height="7" stroke="dodgerblue" width="7" x="562" y="133" />
	<text fill="black" font-family="Arial" font-size="10" stroke="none" x="572.5" y="140">Actinomadura_sputi</text>
	<rect fill="lightcoral" height="7" stroke="lightcoral" width="7" x="562" y="145" />
	<text fill="black" font-family="Arial" font-size="10" stroke="none" x="572.5" y="152">candidate_division_CPR1_bacterium_ADurb.Bin160</text>
	<rect fill="palegreen" height="7" stroke="palegreen" width="7" x="562" y="157" />
	<text fill="black" font-family="Arial" font-size="10" stroke="none" x="572.5" y="164">Sphingobacterium_humi</text>
	<rect fill="mediumpurple" height="7" stroke="mediumpurple" width="7" x="562" y="169" />
	<text fill="black" font-family="Arial" font-size="10" stroke="none" x="572.5" y="176">Atribacteria_bacterium_JGI_0000079-F20</text>
	<rect fill="orange" height="7" stroke="orange" width="7" x="562" y="181" />
	<text fill="black" font-family="Arial" font-size="10" stroke="none" x="572.5" y="188">Sporosarcina_sp_AB_64</text>
	<rect fill="lightseagreen" height="7" stroke="lightseagreen" width="7" x="562" y="193" />
	<text fill="black" font-family="Arial" font-size="10" stroke="none" x="572.5" y="200">Sphingobacterium_mizutaii</text>
	<rect fill="blue" height="7" stroke="blue" width="7" x="562" y="205" />
	<text fill="black" font-family="Arial" font-size="10" stroke="none" x="572.5" y="212">swine_fecal_bacterium_SD-Pec10</text>
	<rect fill="crimson" height="7" stroke="crimson" width="7" x="562" y="217" />
	<text fill="black" font-family="Arial" font-size="10" stroke="none" x="572.5" y="224">Pelotomaculum_sp_DTU098</text>
	<!-- 
	Generated using the Perl SVG Module V2.50
	by Ronan Oger
	Info: http://www.roitsystems.com/
 -->
</svg>