<?xml version="1.0" encoding="UTF-8" standalone="yes"?>
<!DOCTYPE svg PUBLIC "-//W3C//DTD SVG 1.0//EN" "http://www.w3.org/TR/2001/REC-SVG-20010904/DTD/svg10.dtd">
<svg height="450" width="754" xmlns="http://www.w3.org/2000/svg" xmlns:svg="http://www.w3.org/2000/svg" xmlns:xlink="http://www.w3.org/1999/xlink">
	<text fill="black" font-family="Arial" font-size="15" stroke="none" text-anchor="end" x="92.5" y="355">0</text>
	<line stroke="black" stroke-width="2" x1="100" x2="95" y1="350" y2="350" />
	<text fill="black" font-family="Arial" font-size="15" stroke="none" text-anchor="end" x="92.5" y="280">0.25</text>
	<line stroke="black" stroke-width="2" x1="100" x2="95" y1="275" y2="275" />
	<line stroke="black" stroke-dasharray="3 2" stroke-width="0.5" x1="100" x2="550" y1="275" y2="275" />
	<text fill="black" font-family="Arial" font-size="15" stroke="none" text-anchor="end" x="92.5" y="205">0.5</text>
	<line stroke="black" stroke-width="2" x1="100" x2="95" y1="200" y2="200" />
	<line stroke="black" stroke-dasharray="3 2" stroke-width="0.5" x1="100" x2="550" y1="200" y2="200" />
	<text fill="black" font-family="Arial" font-size="15" stroke="none" text-anchor="end" x="92.5" y="130">0.75</text>
	<line stroke="black" stroke-width="2" x1="100" x2="95" y1="125" y2="125" />
	<line stroke="black" stroke-dasharray="3 2" stroke-width="0.5" x1="100" x2="550" y1="125" y2="125" />
	<text fill="black" font-family="Arial" font-size="15" stroke="none" text-anchor="end" x="92.5" y="55">1</text>
	<line stroke="black" stroke-width="2" x1="100" x2="95" y1="50" y2="50" />
	<line stroke="black" stroke-width="1" x1="100" x2="100" y1="50" y2="350" />
	<text fill="black" font-family="Arial" font-size="15" stroke="none" text-anchor="middle" x="325" y="410.574363164907">group Name</text>
	<g transform="rotate(-90,47.5,200)">
		<text fill="black" font-family="Arial" font-size="15" stroke="none" text-anchor="middle" x="47.5" y="200">Relative Abundance</text>
	</g>
	<line stroke="black" stroke-width="2" x1="325" x2="325" y1="350" y2="352.7" />
	<g fill="black" font-family="Arial" font-size="13.5" stroke="none" text-anchor="end" transform="rotate(-45,212.5,359)">
		<text x="212.5" y="363.5">Day.1</text>
	</g>
	<rect fill="crimson" height="53.4825" stroke="crimson" width="112.5" x="156.25" y="296.5175" />
	<rect fill="blue" height="0.5481" stroke="blue" width="112.5" x="156.25" y="295.9694" />
	<rect fill="lightseagreen" height="0.1434" stroke="lightseagreen" width="112.5" x="156.25" y="295.826" />
	<rect fill="orange" height="13.6482" stroke="orange" width="112.5" x="156.25" y="282.1778" />
	<rect fill="mediumpurple" height="16.1304" stroke="mediumpurple" width="112.5" x="156.25" y="266.0474" />
	<rect fill="palegreen" height="7.3029" stroke="palegreen" width="112.5" x="156.25" y="258.7445" />
	<rect fill="lightcoral" height="5.487" stroke="lightcoral" width="112.5" x="156.25" y="253.2575" />
	<rect fill="dodgerblue" height="11.6358" stroke="dodgerblue" width="112.5" x="156.25" y="241.6217" />
	<rect fill="lawngreen" height="9.0519" stroke="lawngreen" width="112.5" x="156.25" y="232.5698" />
	<rect fill="olive" height="3.6042" stroke="olive" width="112.5" x="156.25" y="228.9656" />
	<rect fill="yellow" height="178.9656" stroke="yellow" width="112.5" x="156.25" y="50.0000000000001" />
	<line stroke="black" stroke-width="2" x1="550" x2="550" y1="350" y2="352.7" />
	<g fill="black" font-family="Arial" font-size="13.5" stroke="none" text-anchor="end" transform="rotate(-45,437.5,359)">
		<text x="437.5" y="363.5">Day.29</text>
	</g>
	<rect fill="crimson" height="39.5151" stroke="crimson" width="112.5" x="381.25" y="310.4849" />
	<rect fill="blue" height="18.2145" stroke="blue" width="112.5" x="381.25" y="292.2704" />
	<rect fill="lightseagreen" height="16.896" stroke="lightseagreen" width="112.5" x="381.25" y="275.3744" />
	<rect fill="orange" height="20.1669" stroke="orange" width="112.5" x="381.25" y="255.2075" />
	<rect fill="mediumpurple" height="9.2346" stroke="mediumpurple" width="112.5" x="381.25" y="245.9729" />
	<rect fill="palegreen" height="2.9403" stroke="palegreen" width="112.5" x="381.25" y="243.0326" />
	<rect fill="lightcoral" height="7.3977" stroke="lightcoral" width="112.5" x="381.25" y="235.6349" />
	<rect fill="dodgerblue" height="6.0285" stroke="dodgerblue" width="112.5" x="381.25" y="229.6064" />
	<rect fill="lawngreen" height="5.6952" stroke="lawngreen" width="112.5" x="381.25" y="223.9112" />
	<rect fill="olive" height="3.9372" stroke="olive" width="112.5" x="381.25" y="219.974" />
	<rect fill="yellow" height="169.974" stroke="yellow" width="112.5" x="381.25" y="50" />
	<line stroke="black" stroke-width="2" x1="100" x2="550" y1="350" y2="350" />
	<line stroke="black" stroke-width="2" x1="100" x2="100" y1="50" y2="352.7" />
	<rect fill="yellow" height="7" stroke="yellow" width="7" x="562" y="97" />
	<text fill="black" font-family="Arial" font-size="10" stroke="none" x="572.5" y="104">Others</text>
	<rect fill="olive" height="7" stroke="olive" width="7" x="562" y="109" />
	<text fill="black" font-family="Arial" font-size="10" stroke="none" x="572.5" y="116">Lysinibacillus</text>
	<rect fill="lawngreen" height="7" stroke="lawngreen" width="7" x="562" y="121" />
	<text fill="black" font-family="Arial" font-size="10" stroke="none" x="572.5" y="128">Christensenellaceae_R-7_group</text>
	<rect fill="dodgerblue" height="7" stroke="dodgerblue" width="7" x="562" y="133" />
	<text fill="black" font-family="Arial" font-size="10" stroke="none" x="572.5" y="140">Sedimentibacter</text>
	<rect fill="lightcoral" height="7" stroke="lightcoral" width="7" x="562" y="145" />
	<text fill="black" font-family="Arial" font-size="10" stroke="none" x="572.5" y="152">Fastidiosipila</text>
	<rect fill="palegreen" height="7" stroke="palegreen" width="7" x="562" y="157" />
	<text fill="black" font-family="Arial" font-size="10" stroke="none" x="572.5" y="164">Stenotrophomonas</text>
	<rect fill="mediumpurple" height="7" stroke="mediumpurple" width="7" x="562" y="169" />
	<text fill="black" font-family="Arial" font-size="10" stroke="none" x="572.5" y="176">Acinetobacter</text>
	<rect fill="orange" height="7" stroke="orange" width="7" x="562" y="181" />
	<text fill="black" font-family="Arial" font-size="10" stroke="none" x="572.5" y="188">Candidatus_Microthrix</text>
	<rect fill="lightseagreen" height="7" stroke="lightseagreen" width="7" x="562" y="193" />
	<text fill="black" font-family="Arial" font-size="10" stroke="none" x="572.5" y="200">Psychrobacter</text>
	<rect fill="blue" height="7" stroke="blue" width="7" x="562" y="205" />
	<text fill="black" font-family="Arial" font-size="10" stroke="none" x="572.5" y="212">Glutamicibacter</text>
	<rect fill="crimson" height="7" stroke="crimson" width="7" x="562" y="217" />
	<text fill="black" font-family="Arial" font-size="10" stroke="none" x="572.5" y="224">Methanosaeta</text>
	<!-- 
	Generated using the Perl SVG Module V2.50
	by Ronan Oger
	Info: http://www.roitsystems.com/
 -->
</svg>