<?xml version="1.0" encoding="UTF-8" standalone="yes"?>
<!DOCTYPE svg PUBLIC "-//W3C//DTD SVG 1.0//EN" "http://www.w3.org/TR/2001/REC-SVG-20010904/DTD/svg10.dtd">
<svg height="377" style="background-color: #ffffff;" width="861" xmlns="http://www.w3.org/2000/svg" xmlns:svg="http://www.w3.org/2000/svg" xmlns:xlink="http://www.w3.org/1999/xlink">
	<path d="M 40 145 L 40 82.5 A 12.5 12.5 0 0 1 52.5,70 L 240 70" style="fill: none; stroke: black; stroke-width: 1.5" />
	<text fill="black" font-family="Arial" font-size="15" stroke="none" text-anchor="start" x="247.5" y="75">Middle</text>
	<path d="M 40 145 L 40 211.37 A 8.63 8.63 0 0 0 48.63,220 L 91.79 220" style="fill: none; stroke: black; stroke-width: 1.5" />
	<path d="M 91.79 220 L 91.79 178.33 A 8.33 8.33 0 0 1 100.12,170 L 240 170" style="fill: none; stroke: black; stroke-width: 1.5" />
	<text fill="black" font-family="Arial" font-size="15" stroke="none" text-anchor="start" x="247.5" y="175">Bottom</text>
	<path d="M 91.79 220 L 91.79 261.67 A 8.33 8.33 0 0 0 100.12,270 L 240 270" style="fill: none; stroke: black; stroke-width: 1.5" />
	<text fill="black" font-family="Arial" font-size="15" stroke="none" text-anchor="start" x="247.5" y="275">Top</text>
	<text fill="black" font-family="Arial" font-size="12" stroke="none" text-anchor="start" x="40" y="339.285714285714">Weighted Unifrac Distance</text>
	<line stroke="black" stroke-width="1.5" x1="40" x2="240" y1="353.571428571429" y2="353.571428571429" />
	<line stroke="black" stroke-width="1.5" x1="40" x2="40" y1="353.571428571429" y2="346.428571428571" />
	<text fill="black" font-family="Arial" font-size="14.2857142857143" stroke="none" text-anchor="middle" x="40" y="367.857142857143">0</text>
	<line stroke="black" stroke-width="1.5" x1="44.2384860771848" x2="44.2384860771848" y1="353.571428571429" y2="350" />
	<line stroke="black" stroke-width="1.5" x1="48.4769721543696" x2="48.4769721543696" y1="353.571428571429" y2="350" />
	<line stroke="black" stroke-width="1.5" x1="52.7154582315544" x2="52.7154582315544" y1="353.571428571429" y2="350" />
	<line stroke="black" stroke-width="1.5" x1="56.9539443087392" x2="56.9539443087392" y1="353.571428571429" y2="350" />
	<line stroke="black" stroke-width="1.5" x1="61.192430385924" x2="61.192430385924" y1="353.571428571429" y2="346.428571428571" />
	<line stroke="black" stroke-width="1.5" x1="65.4309164631088" x2="65.4309164631088" y1="353.571428571429" y2="350" />
	<line stroke="black" stroke-width="1.5" x1="69.6694025402936" x2="69.6694025402936" y1="353.571428571429" y2="350" />
	<line stroke="black" stroke-width="1.5" x1="73.9078886174784" x2="73.9078886174784" y1="353.571428571429" y2="350" />
	<line stroke="black" stroke-width="1.5" x1="78.1463746946632" x2="78.1463746946632" y1="353.571428571429" y2="350" />
	<line stroke="black" stroke-width="1.5" x1="82.384860771848" x2="82.384860771848" y1="353.571428571429" y2="346.428571428571" />
	<text fill="black" font-family="Arial" font-size="14.2857142857143" stroke="none" text-anchor="middle" x="82.384860771848" y="367.857142857143">0.025</text>
	<line stroke="black" stroke-width="1.5" x1="86.6233468490328" x2="86.6233468490328" y1="353.571428571429" y2="350" />
	<line stroke="black" stroke-width="1.5" x1="90.8618329262176" x2="90.8618329262176" y1="353.571428571429" y2="350" />
	<line stroke="black" stroke-width="1.5" x1="95.1003190034024" x2="95.1003190034024" y1="353.571428571429" y2="350" />
	<line stroke="black" stroke-width="1.5" x1="99.3388050805872" x2="99.3388050805872" y1="353.571428571429" y2="350" />
	<line stroke="black" stroke-width="1.5" x1="103.577291157772" x2="103.577291157772" y1="353.571428571429" y2="346.428571428571" />
	<line stroke="black" stroke-width="1.5" x1="107.815777234957" x2="107.815777234957" y1="353.571428571429" y2="350" />
	<line stroke="black" stroke-width="1.5" x1="112.054263312142" x2="112.054263312142" y1="353.571428571429" y2="350" />
	<line stroke="black" stroke-width="1.5" x1="116.292749389326" x2="116.292749389326" y1="353.571428571429" y2="350" />
	<line stroke="black" stroke-width="1.5" x1="120.531235466511" x2="120.531235466511" y1="353.571428571429" y2="350" />
	<line stroke="black" stroke-width="1.5" x1="124.769721543696" x2="124.769721543696" y1="353.571428571429" y2="346.428571428571" />
	<text fill="black" font-family="Arial" font-size="14.2857142857143" stroke="none" text-anchor="middle" x="124.769721543696" y="367.857142857143">0.05</text>
	<line stroke="black" stroke-width="1.5" x1="129.008207620881" x2="129.008207620881" y1="353.571428571429" y2="350" />
	<line stroke="black" stroke-width="1.5" x1="133.246693698066" x2="133.246693698066" y1="353.571428571429" y2="350" />
	<line stroke="black" stroke-width="1.5" x1="137.48517977525" x2="137.48517977525" y1="353.571428571429" y2="350" />
	<line stroke="black" stroke-width="1.5" x1="141.723665852435" x2="141.723665852435" y1="353.571428571429" y2="350" />
	<line stroke="black" stroke-width="1.5" x1="145.96215192962" x2="145.96215192962" y1="353.571428571429" y2="346.428571428571" />
	<line stroke="black" stroke-width="1.5" x1="150.200638006805" x2="150.200638006805" y1="353.571428571429" y2="350" />
	<line stroke="black" stroke-width="1.5" x1="154.43912408399" x2="154.43912408399" y1="353.571428571429" y2="350" />
	<line stroke="black" stroke-width="1.5" x1="158.677610161174" x2="158.677610161174" y1="353.571428571429" y2="350" />
	<line stroke="black" stroke-width="1.5" x1="162.916096238359" x2="162.916096238359" y1="353.571428571429" y2="350" />
	<line stroke="black" stroke-width="1.5" x1="167.154582315544" x2="167.154582315544" y1="353.571428571429" y2="346.428571428571" />
	<text fill="black" font-family="Arial" font-size="14.2857142857143" stroke="none" text-anchor="middle" x="167.154582315544" y="367.857142857143">0.075</text>
	<line stroke="black" stroke-width="1.5" x1="171.393068392729" x2="171.393068392729" y1="353.571428571429" y2="350" />
	<line stroke="black" stroke-width="1.5" x1="175.631554469914" x2="175.631554469914" y1="353.571428571429" y2="350" />
	<line stroke="black" stroke-width="1.5" x1="179.870040547098" x2="179.870040547098" y1="353.571428571429" y2="350" />
	<line stroke="black" stroke-width="1.5" x1="184.108526624283" x2="184.108526624283" y1="353.571428571429" y2="350" />
	<line stroke="black" stroke-width="1.5" x1="188.347012701468" x2="188.347012701468" y1="353.571428571429" y2="346.428571428571" />
	<line stroke="black" stroke-width="1.5" x1="192.585498778653" x2="192.585498778653" y1="353.571428571429" y2="350" />
	<line stroke="black" stroke-width="1.5" x1="196.823984855838" x2="196.823984855838" y1="353.571428571429" y2="350" />
	<line stroke="black" stroke-width="1.5" x1="201.062470933022" x2="201.062470933022" y1="353.571428571429" y2="350" />
	<line stroke="black" stroke-width="1.5" x1="205.300957010207" x2="205.300957010207" y1="353.571428571429" y2="350" />
	<line stroke="black" stroke-width="1.5" x1="209.539443087392" x2="209.539443087392" y1="353.571428571429" y2="346.428571428571" />
	<text fill="black" font-family="Arial" font-size="14.2857142857143" stroke="none" text-anchor="middle" x="209.539443087392" y="367.857142857143">0.1</text>
	<line stroke="black" stroke-width="1.5" x1="213.777929164577" x2="213.777929164577" y1="353.571428571429" y2="350" />
	<line stroke="black" stroke-width="1.5" x1="218.016415241762" x2="218.016415241762" y1="353.571428571429" y2="350" />
	<line stroke="black" stroke-width="1.5" x1="222.254901318947" x2="222.254901318947" y1="353.571428571429" y2="350" />
	<line stroke="black" stroke-width="1.5" x1="226.493387396131" x2="226.493387396131" y1="353.571428571429" y2="350" />
	<line stroke="black" stroke-width="1.5" x1="230.731873473316" x2="230.731873473316" y1="353.571428571429" y2="346.428571428571" />
	<line stroke="black" stroke-width="1.5" x1="234.970359550501" x2="234.970359550501" y1="353.571428571429" y2="350" />
	<line stroke="black" stroke-width="1.5" x1="239.208845627686" x2="239.208845627686" y1="353.571428571429" y2="350" />
	<rect fill="crimson" height="80" stroke="black" width="91.08" x="321" y="30" />
	<rect fill="blue" height="80" stroke="black" width="56.91" x="412.08" y="30" />
	<rect fill="lightseagreen" height="80" stroke="black" width="82.22" x="468.99" y="30" />
	<rect fill="orange" height="80" stroke="black" width="66.99" x="551.21" y="30" />
	<rect fill="mediumpurple" height="80" stroke="black" width="39.48" x="618.2" y="30" />
	<rect fill="palegreen" height="80" stroke="black" width="32.01" x="657.68" y="30" />
	<rect fill="lightcoral" height="80" stroke="black" width="5.73" x="689.69" y="30" />
	<rect fill="dodgerblue" height="80" stroke="black" width="8.49" x="695.42" y="30" />
	<rect fill="lawngreen" height="80" stroke="black" width="5.98" x="703.91" y="30" />
	<rect fill="olive" height="80" stroke="black" width="2.89" x="709.89" y="30" />
	<rect fill="yellow" height="80" stroke="black" width="8.22" x="712.78" y="30" />
	<rect fill="crimson" height="80" stroke="black" width="118.04" x="321" y="130" />
	<line stroke="black" stroke-width="1" x1="412.08" x2="439.04" y1="110" y2="130" />
	<rect fill="blue" height="80" stroke="black" width="57.78" x="439.04" y="130" />
	<line stroke="black" stroke-width="1" x1="468.99" x2="496.82" y1="110" y2="130" />
	<rect fill="lightseagreen" height="80" stroke="black" width="57.96" x="496.82" y="130" />
	<line stroke="black" stroke-width="1" x1="551.21" x2="554.78" y1="110" y2="130" />
	<rect fill="orange" height="80" stroke="black" width="74.91" x="554.78" y="130" />
	<line stroke="black" stroke-width="1" x1="618.2" x2="629.69" y1="110" y2="130" />
	<rect fill="mediumpurple" height="80" stroke="black" width="35.57" x="629.69" y="130" />
	<line stroke="black" stroke-width="1" x1="657.68" x2="665.26" y1="110" y2="130" />
	<rect fill="palegreen" height="80" stroke="black" width="18.08" x="665.26" y="130" />
	<line stroke="black" stroke-width="1" x1="689.69" x2="683.34" y1="110" y2="130" />
	<rect fill="lightcoral" height="80" stroke="black" width="12.73" x="683.34" y="130" />
	<line stroke="black" stroke-width="1" x1="695.42" x2="696.07" y1="110" y2="130" />
	<rect fill="dodgerblue" height="80" stroke="black" width="5.43" x="696.07" y="130" />
	<line stroke="black" stroke-width="1" x1="703.91" x2="701.5" y1="110" y2="130" />
	<rect fill="lawngreen" height="80" stroke="black" width="7.11" x="701.5" y="130" />
	<line stroke="black" stroke-width="1" x1="709.89" x2="708.61" y1="110" y2="130" />
	<rect fill="olive" height="80" stroke="black" width="3.86" x="708.61" y="130" />
	<line stroke="black" stroke-width="1" x1="712.78" x2="712.47" y1="110" y2="130" />
	<rect fill="yellow" height="80" stroke="black" width="8.54" x="712.47" y="130" />
	<line stroke="black" stroke-width="1" x1="721" x2="721.01" y1="110" y2="130" />
	<rect fill="crimson" height="80" stroke="black" width="112.02" x="321" y="230" />
	<line stroke="black" stroke-width="1" x1="439.04" x2="433.02" y1="210" y2="230" />
	<rect fill="blue" height="80" stroke="black" width="101.08" x="433.02" y="230" />
	<line stroke="black" stroke-width="1" x1="496.82" x2="534.1" y1="210" y2="230" />
	<rect fill="lightseagreen" height="80" stroke="black" width="55.02" x="534.1" y="230" />
	<line stroke="black" stroke-width="1" x1="554.78" x2="589.12" y1="210" y2="230" />
	<rect fill="orange" height="80" stroke="black" width="75.51" x="589.12" y="230" />
	<line stroke="black" stroke-width="1" x1="629.69" x2="664.63" y1="210" y2="230" />
	<rect fill="mediumpurple" height="80" stroke="black" width="27.93" x="664.63" y="230" />
	<line stroke="black" stroke-width="1" x1="665.26" x2="692.56" y1="210" y2="230" />
	<rect fill="palegreen" height="80" stroke="black" width="10.23" x="692.56" y="230" />
	<line stroke="black" stroke-width="1" x1="683.34" x2="702.79" y1="210" y2="230" />
	<rect fill="lightcoral" height="80" stroke="black" width="5.37" x="702.79" y="230" />
	<line stroke="black" stroke-width="1" x1="696.07" x2="708.16" y1="210" y2="230" />
	<rect fill="dodgerblue" height="80" stroke="black" width="2.93" x="708.16" y="230" />
	<line stroke="black" stroke-width="1" x1="701.5" x2="711.09" y1="210" y2="230" />
	<rect fill="lawngreen" height="80" stroke="black" width="2.55" x="711.09" y="230" />
	<line stroke="black" stroke-width="1" x1="708.61" x2="713.64" y1="210" y2="230" />
	<rect fill="olive" height="80" stroke="black" width="1.86" x="713.64" y="230" />
	<line stroke="black" stroke-width="1" x1="712.47" x2="715.5" y1="210" y2="230" />
	<rect fill="yellow" height="80" stroke="black" width="5.49" x="715.5" y="230" />
	<line stroke="black" stroke-width="1" x1="721.01" x2="720.99" y1="210" y2="230" />
	<line stroke="black" stroke-width="1" x1="321" x2="721" y1="330" y2="330" />
	<line stroke="black" stroke-width="1" x1="321" x2="321" y1="330" y2="337.5" />
	<text fill="black" font-family="Arial" font-size="15" stroke="none" text-anchor="middle" x="321" y="352.5">0</text>
	<line stroke="black" stroke-width="1" x1="421" x2="421" y1="330" y2="337.5" />
	<text fill="black" font-family="Arial" font-size="15" stroke="none" text-anchor="middle" x="421" y="352.5">0.25</text>
	<line stroke="black" stroke-width="1" x1="521" x2="521" y1="330" y2="337.5" />
	<text fill="black" font-family="Arial" font-size="15" stroke="none" text-anchor="middle" x="521" y="352.5">0.5</text>
	<line stroke="black" stroke-width="1" x1="621" x2="621" y1="330" y2="337.5" />
	<text fill="black" font-family="Arial" font-size="15" stroke="none" text-anchor="middle" x="621" y="352.5">0.75</text>
	<line stroke="black" stroke-width="1" x1="721" x2="721" y1="330" y2="337.5" />
	<text fill="black" font-family="Arial" font-size="15" stroke="none" text-anchor="middle" x="721" y="352.5">1</text>
	<text fill="black" font-family="Arial" font-size="15" stroke="none" text-anchor="middle" x="521" y="367.5">Relative Abundance in Phylum Level</text>
	<rect fill="crimson" height="11.1111111111111" stroke="black" width="11.1111111111111" x="732.111111111111" y="30" />
	<text fill="black" font-family="Arial" font-size="11.1111111111111" stroke="none" text-anchor="start" x="748.777777777778" y="39.4444444444444">Actinobacteriota</text>
	<rect fill="blue" height="11.1111111111111" stroke="black" width="11.1111111111111" x="732.111111111111" y="46.6666666666667" />
	<text fill="black" font-family="Arial" font-size="11.1111111111111" stroke="none" text-anchor="start" x="748.777777777778" y="56.1111111111111">Proteobacteria</text>
	<rect fill="lightseagreen" height="11.1111111111111" stroke="black" width="11.1111111111111" x="732.111111111111" y="63.3333333333333" />
	<text fill="black" font-family="Arial" font-size="11.1111111111111" stroke="none" text-anchor="start" x="748.777777777778" y="72.7777777777778">Halobacterota</text>
	<rect fill="orange" height="11.1111111111111" stroke="black" width="11.1111111111111" x="732.111111111111" y="80" />
	<text fill="black" font-family="Arial" font-size="11.1111111111111" stroke="none" text-anchor="start" x="748.777777777778" y="89.4444444444444">Firmicutes</text>
	<rect fill="mediumpurple" height="11.1111111111111" stroke="black" width="11.1111111111111" x="732.111111111111" y="96.6666666666667" />
	<text fill="black" font-family="Arial" font-size="11.1111111111111" stroke="none" text-anchor="start" x="748.777777777778" y="106.111111111111">Bacteroidota</text>
	<rect fill="palegreen" height="11.1111111111111" stroke="black" width="11.1111111111111" x="732.111111111111" y="113.333333333333" />
	<text fill="black" font-family="Arial" font-size="11.1111111111111" stroke="none" text-anchor="start" x="748.777777777778" y="122.777777777778">Acidobacteriota</text>
	<rect fill="lightcoral" height="11.1111111111111" stroke="black" width="11.1111111111111" x="732.111111111111" y="130" />
	<text fill="black" font-family="Arial" font-size="11.1111111111111" stroke="none" text-anchor="start" x="748.777777777778" y="139.444444444444">Chloroflexi</text>
	<rect fill="dodgerblue" height="11.1111111111111" stroke="black" width="11.1111111111111" x="732.111111111111" y="146.666666666667" />
	<text fill="black" font-family="Arial" font-size="11.1111111111111" stroke="none" text-anchor="start" x="748.777777777778" y="156.111111111111">Cloacimonadota</text>
	<rect fill="lawngreen" height="11.1111111111111" stroke="black" width="11.1111111111111" x="732.111111111111" y="163.333333333333" />
	<text fill="black" font-family="Arial" font-size="11.1111111111111" stroke="none" text-anchor="start" x="748.777777777778" y="172.777777777778">Synergistota</text>
	<rect fill="olive" height="11.1111111111111" stroke="black" width="11.1111111111111" x="732.111111111111" y="180" />
	<text fill="black" font-family="Arial" font-size="11.1111111111111" stroke="none" text-anchor="start" x="748.777777777778" y="189.444444444444">Patescibacteria</text>
	<rect fill="yellow" height="11.1111111111111" stroke="black" width="11.1111111111111" x="732.111111111111" y="196.666666666667" />
	<text fill="black" font-family="Arial" font-size="11.1111111111111" stroke="none" text-anchor="start" x="748.777777777778" y="206.111111111111">Others</text>
	<line stroke="crimson" x1="18.030303030303" x2="27.1212121212121" y1="23.030303030303" y2="23.030303030303" />
	<text fill="black" font-family="Arial" font-size="6.06060606060606" stroke="none" text-anchor="start" x="30.1515151515152" y="25.1515151515152">Bottom</text>
	<line stroke="blue" x1="18.030303030303" x2="27.1212121212121" y1="32.1212121212121" y2="32.1212121212121" />
	<text fill="black" font-family="Arial" font-size="6.06060606060606" stroke="none" text-anchor="start" x="30.1515151515152" y="34.2424242424242">Middle</text>
	<line stroke="lightseagreen" x1="18.030303030303" x2="27.1212121212121" y1="41.2121212121212" y2="41.2121212121212" />
	<text fill="black" font-family="Arial" font-size="6.06060606060606" stroke="none" text-anchor="start" x="30.1515151515152" y="43.3333333333333">Top</text>
	<!--
	Generated using the Perl SVG Module V2.84
	by Ronan Oger
	Info: http://www.roitsystems.com/
	-->
</svg>