<?xml version="1.0" encoding="UTF-8" standalone="yes"?>
<!DOCTYPE svg PUBLIC "-//W3C//DTD SVG 1.0//EN" "http://www.w3.org/TR/2001/REC-SVG-20010904/DTD/svg10.dtd">
<svg height="250" width="780" xmlns="http://www.w3.org/2000/svg" xmlns:svg="http://www.w3.org/2000/svg" xmlns:xlink="http://www.w3.org/1999/xlink">
	<line stroke="black" stroke-width="2" x1="150" x2="290" y1="160" y2="160" />
	<line stroke="black" stroke-width="1" x1="150" x2="150" y1="160" y2="155" />
	<line stroke="black" stroke-width="1" x1="290" x2="290" y1="160" y2="155" />
	<text font-family="Arial" font-size="10" text-anchor="middle" x="150" y="175">0</text>
	<text font-family="Arial" font-size="10" text-anchor="middle" x="290" y="175">0.0015</text>
	<text font-family="Arial" font-size="15" text-anchor="middle" x="220" y="190">Means in groups</text>
	<rect fill="sandybrown" height="10" stroke="black" width="28" x="20" y="70" />
	<text font-family="Arial" font-size="10" text-anchor="start" x="53" y="80">Day.1</text>
	<rect fill="cornflowerblue" height="10" stroke="black" width="28" x="103" y="70" />
	<text font-family="Arial" font-size="10" text-anchor="start" x="136" y="80">Day.29</text>
	<line stroke="black" stroke-width="2" x1="350" x2="600" y1="160" y2="160" />
	<line stroke="black" stroke-width="1" x1="350" x2="350" y1="160" y2="155" />
	<text font-family="Arial" font-size="10" text-anchor="end" x="350" y="175">0</text>
	<line stroke="black" stroke-width="1" x1="412.5" x2="412.5" y1="160" y2="155" />
	<text font-family="Arial" font-size="10" text-anchor="end" x="412.5" y="175">0.0005</text>
	<line stroke="black" stroke-width="1" x1="475" x2="475" y1="160" y2="155" />
	<text font-family="Arial" font-size="10" text-anchor="end" x="475" y="175">0.001</text>
	<line stroke="black" stroke-width="1" x1="537.5" x2="537.5" y1="160" y2="155" />
	<text font-family="Arial" font-size="10" text-anchor="end" x="537.5" y="175">0.0015</text>
	<line stroke="black" stroke-width="1" x1="600" x2="600" y1="160" y2="155" />
	<text font-family="Arial" font-size="10" text-anchor="end" x="600" y="175">0.002</text>
	<line stroke="black" stroke-dasharray="3 2" stroke-width="1" x1="350" x2="350" y1="150" y2="100" />
	<text font-family="Arial" font-size="15" text-anchor="middle" x="475" y="190">Difference between groups</text>
	<text font-family="Arial" font-size="10" text-anchor="middle" x="475" y="80">95% confidence intervals</text>
	<text font-family="Arial" font-size="10" text-anchor="end" x="145" y="130">Koukoulia_aurantiaca</text>
	<text font-family="Arial" font-size="10" text-anchor="start" x="605" y="130">0.044</text>
	<rect fill-opacity="0.1" height="50" width="140" x="150" y="100" />
	<rect fill-opacity="0.1" height="50" width="250" x="350" y="100" />
	<rect fill="sandybrown" height="20" stroke="black" stroke-width="1" width="96.4373195976979" x="150" y="105" />
	<rect fill="cornflowerblue" height="20" stroke="black" width="0" x="150" y="125" />
	<line stroke="black" stroke-width="1" x1="358.675424243351" x2="470.823791127869" y1="125" y2="125" />
	<circle cx="479.157124461202" cy="125" fill="sandybrown" r="8.33333333333333" stroke="black" />
	<line stroke="black" stroke-width="1" x1="487.490457794536" x2="599.638824679054" y1="125" y2="125" />
	<line stroke="black" stroke-width="1" x1="358.675424243351" x2="358.675424243351" y1="120.833333333333" y2="129.166666666667" />
	<line stroke="black" stroke-width="1" x1="599.638824679054" x2="599.638824679054" y1="120.833333333333" y2="129.166666666667" />
	<g transform="rotate(90,647.5,125)">
		<text font-family="Arial" font-size="10" text-anchor="middle" x="647.5" y="125">p_value</text>
	</g>
	<!-- 
	Generated using the Perl SVG Module V2.59
	by Ronan Oger
	Info: http://www.roitsystems.com/
 -->
</svg>