<?xml version="1.0" encoding="UTF-8" standalone="yes"?>
<!DOCTYPE svg PUBLIC "-//W3C//DTD SVG 1.0//EN" "http://www.w3.org/TR/2001/REC-SVG-20010904/DTD/svg10.dtd">
<svg height="400" width="648" xmlns="http://www.w3.org/2000/svg" xmlns:svg="http://www.w3.org/2000/svg" xmlns:xlink="http://www.w3.org/1999/xlink">
	<line stroke="black" stroke-width="2" x1="78.5" x2="218.5" y1="310" y2="310" />
	<line stroke="black" stroke-width="1" x1="78.5" x2="78.5" y1="310" y2="305" />
	<line stroke="black" stroke-width="1" x1="218.5" x2="218.5" y1="310" y2="305" />
	<text font-family="Arial" font-size="10" text-anchor="middle" x="78.5" y="325">0</text>
	<text font-family="Arial" font-size="10" text-anchor="middle" x="218.5" y="325">0.009</text>
	<text font-family="Arial" font-size="15" text-anchor="middle" x="148.5" y="340">Means in groups</text>
	<rect fill="sandybrown" height="10" stroke="black" width="28" x="9" y="70" />
	<text font-family="Arial" font-size="10" text-anchor="start" x="42" y="80">Day.1</text>
	<rect fill="cornflowerblue" height="10" stroke="black" width="28" x="92" y="70" />
	<text font-family="Arial" font-size="10" text-anchor="start" x="125" y="80">Day.29</text>
	<line stroke="black" stroke-width="2" x1="278.5" x2="528.5" y1="310" y2="310" />
	<line stroke="black" stroke-width="1" x1="278.5" x2="278.5" y1="310" y2="305" />
	<text font-family="Arial" font-size="10" text-anchor="end" x="278.5" y="325">-0.0005</text>
	<line stroke="black" stroke-width="1" x1="328.5" x2="328.5" y1="310" y2="305" />
	<text font-family="Arial" font-size="10" text-anchor="end" x="328.5" y="325">0</text>
	<line stroke="black" stroke-width="1" x1="378.5" x2="378.5" y1="310" y2="305" />
	<text font-family="Arial" font-size="10" text-anchor="end" x="378.5" y="325">0.0005</text>
	<line stroke="black" stroke-width="1" x1="428.5" x2="428.5" y1="310" y2="305" />
	<text font-family="Arial" font-size="10" text-anchor="end" x="428.5" y="325">0.001</text>
	<line stroke="black" stroke-width="1" x1="478.5" x2="478.5" y1="310" y2="305" />
	<text font-family="Arial" font-size="10" text-anchor="end" x="478.5" y="325">0.0015</text>
	<line stroke="black" stroke-width="1" x1="528.5" x2="528.5" y1="310" y2="305" />
	<text font-family="Arial" font-size="10" text-anchor="end" x="528.5" y="325">0.002</text>
	<line stroke="black" stroke-dasharray="3 2" stroke-width="1" x1="328.5" x2="328.5" y1="300" y2="100" />
	<text font-family="Arial" font-size="15" text-anchor="middle" x="403.5" y="340">Difference between groups</text>
	<text font-family="Arial" font-size="10" text-anchor="middle" x="403.5" y="80">95% confidence intervals</text>
	<text font-family="Arial" font-size="10" text-anchor="end" x="73.5" y="130">PWY-7222</text>
	<text font-family="Arial" font-size="10" text-anchor="start" x="533.5" y="130">0.026</text>
	<rect fill-opacity="0.1" height="50" width="140" x="78.5" y="100" />
	<rect fill-opacity="0.1" height="50" width="250" x="278.5" y="100" />
	<text font-family="Arial" font-size="10" text-anchor="end" x="73.5" y="180">PWY-7220</text>
	<text font-family="Arial" font-size="10" text-anchor="start" x="533.5" y="180">0.026</text>
	<text font-family="Arial" font-size="10" text-anchor="end" x="73.5" y="230">PWY-7197</text>
	<text font-family="Arial" font-size="10" text-anchor="start" x="533.5" y="230">0.017</text>
	<rect fill-opacity="0.1" height="50" width="140" x="78.5" y="200" />
	<rect fill-opacity="0.1" height="50" width="250" x="278.5" y="200" />
	<text font-family="Arial" font-size="10" text-anchor="end" x="73.5" y="280">PWY0-1479</text>
	<text font-family="Arial" font-size="10" text-anchor="start" x="533.5" y="280">0.009</text>
	<rect fill="sandybrown" height="20" stroke="black" stroke-width="1" width="90.9218736274237" x="78.5" y="105" />
	<rect fill="cornflowerblue" height="20" stroke="black" width="94.2497847076115" x="78.5" y="125" />
	<rect fill="sandybrown" height="20" stroke="black" stroke-width="1" width="90.9218736274237" x="78.5" y="155" />
	<rect fill="cornflowerblue" height="20" stroke="black" width="94.2497847076115" x="78.5" y="175" />
	<rect fill="sandybrown" height="20" stroke="black" stroke-width="1" width="78.6945937841115" x="78.5" y="205" />
	<rect fill="cornflowerblue" height="20" stroke="black" width="81.675317838583" x="78.5" y="225" />
	<rect fill="sandybrown" height="20" stroke="black" stroke-width="1" width="35.0205579730429" x="78.5" y="255" />
	<rect fill="cornflowerblue" height="20" stroke="black" width="19.37384128344" x="78.5" y="275" />
	<line stroke="black" stroke-width="1" x1="290.51268817096" x2="298.772952579745" y1="125" y2="125" />
	<circle cx="307.106285913078" cy="125" fill="cornflowerblue" r="8.33333333333333" stroke="black" />
	<line stroke="black" stroke-width="1" x1="315.439619246411" x2="323.699883655197" y1="125" y2="125" />
	<line stroke="black" stroke-width="1" x1="290.51268817096" x2="290.51268817096" y1="120.833333333333" y2="129.166666666667" />
	<line stroke="black" stroke-width="1" x1="323.699883655197" x2="323.699883655197" y1="120.833333333333" y2="129.166666666667" />
	<line stroke="black" stroke-width="1" x1="290.51268817096" x2="298.772952579745" y1="175" y2="175" />
	<circle cx="307.106285913078" cy="175" fill="cornflowerblue" r="8.33333333333333" stroke="black" />
	<line stroke="black" stroke-width="1" x1="315.439619246411" x2="323.699883655197" y1="175" y2="175" />
	<line stroke="black" stroke-width="1" x1="290.51268817096" x2="290.51268817096" y1="170.833333333333" y2="179.166666666667" />
	<line stroke="black" stroke-width="1" x1="323.699883655197" x2="323.699883655197" y1="170.833333333333" y2="179.166666666667" />
	<line stroke="black" stroke-width="1" x1="296.384984162224" x2="301.004869173636" y1="225" y2="225" />
	<circle cx="309.338202506969" cy="225" fill="cornflowerblue" r="8.33333333333333" stroke="black" />
	<line stroke="black" stroke-width="1" x1="317.671535840302" x2="322.291420851714" y1="225" y2="225" />
	<line stroke="black" stroke-width="1" x1="296.384984162224" x2="296.384984162224" y1="220.833333333333" y2="229.166666666667" />
	<line stroke="black" stroke-width="1" x1="322.291420851714" x2="322.291420851714" y1="220.833333333333" y2="229.166666666667" />
	<line stroke="black" stroke-width="1" x1="376.058205378404" x2="420.7527025284" y1="275" y2="275" />
	<circle cx="429.086035861733" cy="275" fill="sandybrown" r="8.33333333333333" stroke="black" />
	<line stroke="black" stroke-width="1" x1="437.419369195066" x2="482.113866345062" y1="275" y2="275" />
	<line stroke="black" stroke-width="1" x1="376.058205378404" x2="376.058205378404" y1="270.833333333333" y2="279.166666666667" />
	<line stroke="black" stroke-width="1" x1="482.113866345062" x2="482.113866345062" y1="270.833333333333" y2="279.166666666667" />
	<g transform="rotate(90,576,200)">
		<text font-family="Arial" font-size="10" text-anchor="middle" x="576" y="200">p_value</text>
	</g>
	<!-- 
	Generated using the Perl SVG Module V2.59
	by Ronan Oger
	Info: http://www.roitsystems.com/
 -->
</svg>