<?xml version="1.0" encoding="UTF-8" standalone="yes"?>
<!DOCTYPE svg PUBLIC "-//W3C//DTD SVG 1.0//EN" "http://www.w3.org/TR/2001/REC-SVG-20010904/DTD/svg10.dtd">
<svg height="450" width="684" xmlns="http://www.w3.org/2000/svg" xmlns:svg="http://www.w3.org/2000/svg" xmlns:xlink="http://www.w3.org/1999/xlink">
	<line stroke="black" stroke-width="2" x1="98" x2="238" y1="360" y2="360" />
	<line stroke="black" stroke-width="1" x1="98" x2="98" y1="360" y2="355" />
	<line stroke="black" stroke-width="1" x1="238" x2="238" y1="360" y2="355" />
	<text font-family="Arial" font-size="10" text-anchor="middle" x="98" y="375">0</text>
	<text font-family="Arial" font-size="10" text-anchor="middle" x="238" y="375">0.009</text>
	<text font-family="Arial" font-size="15" text-anchor="middle" x="168" y="390">Means in groups</text>
	<rect fill="sandybrown" height="10" stroke="black" width="28" x="12" y="70" />
	<text font-family="Arial" font-size="10" text-anchor="start" x="45" y="80">Day.1</text>
	<rect fill="cornflowerblue" height="10" stroke="black" width="28" x="95" y="70" />
	<text font-family="Arial" font-size="10" text-anchor="start" x="128" y="80">Day.29</text>
	<line stroke="black" stroke-width="2" x1="298" x2="548" y1="360" y2="360" />
	<line stroke="black" stroke-width="1" x1="298" x2="298" y1="360" y2="355" />
	<text font-family="Arial" font-size="10" text-anchor="end" x="298" y="375">-0.0005</text>
	<line stroke="black" stroke-width="1" x1="381.333333333333" x2="381.333333333333" y1="360" y2="355" />
	<text font-family="Arial" font-size="10" text-anchor="end" x="381.333333333333" y="375">0</text>
	<line stroke="black" stroke-width="1" x1="464.666666666667" x2="464.666666666667" y1="360" y2="355" />
	<text font-family="Arial" font-size="10" text-anchor="end" x="464.666666666667" y="375">0.0005</text>
	<line stroke="black" stroke-width="1" x1="548" x2="548" y1="360" y2="355" />
	<text font-family="Arial" font-size="10" text-anchor="end" x="548" y="375">0.001</text>
	<line stroke="black" stroke-dasharray="3 2" stroke-width="1" x1="381.333333333333" x2="381.333333333333" y1="350" y2="100" />
	<text font-family="Arial" font-size="15" text-anchor="middle" x="423" y="390">Difference between groups</text>
	<text font-family="Arial" font-size="10" text-anchor="middle" x="423" y="80">95% confidence intervals</text>
	<text font-family="Arial" font-size="10" text-anchor="end" x="93" y="130">EC:5.2.1.8</text>
	<text font-family="Arial" font-size="10" text-anchor="start" x="553" y="130">0.017</text>
	<rect fill-opacity="0.1" height="50" width="140" x="98" y="100" />
	<rect fill-opacity="0.1" height="50" width="250" x="298" y="100" />
	<text font-family="Arial" font-size="10" text-anchor="end" x="93" y="180">EC:2.2.1.6</text>
	<text font-family="Arial" font-size="10" text-anchor="start" x="553" y="180">0.017</text>
	<text font-family="Arial" font-size="10" text-anchor="end" x="93" y="230">EC:1.4.4.2</text>
	<text font-family="Arial" font-size="10" text-anchor="start" x="553" y="230">0.020</text>
	<rect fill-opacity="0.1" height="50" width="140" x="98" y="200" />
	<rect fill-opacity="0.1" height="50" width="250" x="298" y="200" />
	<text font-family="Arial" font-size="10" text-anchor="end" x="93" y="280">EC:2.3.1.241</text>
	<text font-family="Arial" font-size="10" text-anchor="start" x="553" y="280">0.024</text>
	<text font-family="Arial" font-size="10" text-anchor="end" x="93" y="330">EC:3.2.1.20</text>
	<text font-family="Arial" font-size="10" text-anchor="start" x="553" y="330">0.005</text>
	<rect fill-opacity="0.1" height="50" width="140" x="98" y="300" />
	<rect fill-opacity="0.1" height="50" width="250" x="298" y="300" />
	<rect fill="sandybrown" height="20" stroke="black" stroke-width="1" width="100.568669884219" x="98" y="105" />
	<rect fill="cornflowerblue" height="20" stroke="black" width="92.0080597817291" x="98" y="125" />
	<rect fill="sandybrown" height="20" stroke="black" stroke-width="1" width="51.9946057252497" x="98" y="155" />
	<rect fill="cornflowerblue" height="20" stroke="black" width="53.593697901644" x="98" y="175" />
	<rect fill="sandybrown" height="20" stroke="black" stroke-width="1" width="18.4757660740201" x="98" y="205" />
	<rect fill="cornflowerblue" height="20" stroke="black" width="20.3022108954168" x="98" y="225" />
	<rect fill="sandybrown" height="20" stroke="black" stroke-width="1" width="18.4599862894479" x="98" y="255" />
	<rect fill="cornflowerblue" height="20" stroke="black" width="16.1126160745534" x="98" y="275" />
	<rect fill="sandybrown" height="20" stroke="black" stroke-width="1" width="13.3322727319094" x="98" y="305" />
	<rect fill="cornflowerblue" height="20" stroke="black" width="16.0750790601394" x="98" y="325" />
	<line stroke="black" stroke-width="1" x1="415.523186074278" x2="464.720822526675" y1="125" y2="125" />
	<circle cx="473.054155860008" cy="125" fill="sandybrown" r="8.33333333333333" stroke="black" />
	<line stroke="black" stroke-width="1" x1="481.387489193342" x2="530.585125645739" y1="125" y2="125" />
	<line stroke="black" stroke-width="1" x1="415.523186074278" x2="415.523186074278" y1="120.833333333333" y2="129.166666666667" />
	<line stroke="black" stroke-width="1" x1="530.585125645739" x2="530.585125645739" y1="120.833333333333" y2="129.166666666667" />
	<line stroke="black" stroke-width="1" x1="352.685598793856" x2="355.866869538633" y1="175" y2="175" />
	<circle cx="364.200202871967" cy="175" fill="cornflowerblue" r="8.33333333333333" stroke="black" />
	<line stroke="black" stroke-width="1" x1="372.5335362053" x2="375.714806950076" y1="175" y2="175" />
	<line stroke="black" stroke-width="1" x1="352.685598793856" x2="352.685598793856" y1="170.833333333333" y2="179.166666666667" />
	<line stroke="black" stroke-width="1" x1="375.714806950076" x2="375.714806950076" y1="170.833333333333" y2="179.166666666667" />
	<line stroke="black" stroke-width="1" x1="348.014414089374" x2="353.430948342178" y1="225" y2="225" />
	<circle cx="361.764281675512" cy="225" fill="cornflowerblue" r="8.33333333333333" stroke="black" />
	<line stroke="black" stroke-width="1" x1="370.097615008845" x2="375.514149261651" y1="225" y2="225" />
	<line stroke="black" stroke-width="1" x1="348.014414089374" x2="348.014414089374" y1="220.833333333333" y2="229.166666666667" />
	<line stroke="black" stroke-width="1" x1="375.514149261651" x2="375.514149261651" y1="220.833333333333" y2="229.166666666667" />
	<line stroke="black" stroke-width="1" x1="387.079441535358" x2="398.150395159583" y1="275" y2="275" />
	<circle cx="406.483728492917" cy="275" fill="sandybrown" r="8.33333333333333" stroke="black" />
	<line stroke="black" stroke-width="1" x1="414.81706182625" x2="425.888015450475" y1="275" y2="275" />
	<line stroke="black" stroke-width="1" x1="387.079441535358" x2="387.079441535358" y1="270.833333333333" y2="279.166666666667" />
	<line stroke="black" stroke-width="1" x1="425.888015450475" x2="425.888015450475" y1="270.833333333333" y2="279.166666666667" />
	<line stroke="black" stroke-width="1" x1="337.406487781865" x2="343.612789340393" y1="325" y2="325" />
	<circle cx="351.946122673727" cy="325" fill="cornflowerblue" r="8.33333333333333" stroke="black" />
	<line stroke="black" stroke-width="1" x1="360.27945600706" x2="366.485757565589" y1="325" y2="325" />
	<line stroke="black" stroke-width="1" x1="337.406487781865" x2="337.406487781865" y1="320.833333333333" y2="329.166666666667" />
	<line stroke="black" stroke-width="1" x1="366.485757565589" x2="366.485757565589" y1="320.833333333333" y2="329.166666666667" />
	<g transform="rotate(90,595.5,225)">
		<text font-family="Arial" font-size="10" text-anchor="middle" x="595.5" y="225">p_value</text>
	</g>
	<!-- 
	Generated using the Perl SVG Module V2.59
	by Ronan Oger
	Info: http://www.roitsystems.com/
 -->
</svg>